<svg width="180" height="180" viewBox="0 0 180 180" fill="none" xmlns="http://www.w3.org/2000/svg">
<path d="M101.5 126.787H137.333C142.083 126.787 146 130.194 146 134.327V178.837H95.6666V131.789C95.6666 129.035 98.25 126.787 101.5 126.787Z" fill="#233647"/>
<path d="M42.9166 82.9299H101.5C106.417 82.9299 110.333 86.3371 110.333 90.6141V179.417H34.0833V90.6141C34.0833 86.4095 38.0833 82.9299 42.9166 82.9299Z" fill="#94A2AF"/>
<path d="M66.0833 26H118.5C122.833 26 126.417 29.3267 126.417 33.5246V179.344H58.25V33.4454C58.25 29.3267 61.75 26 66.0833 26Z" fill="#FFD25C"/>
<path d="M75.8724 40.4943L91.0465 39.1107C94.0502 38.8368 96.2976 38.7625 97.7885 38.8876C99.2952 38.9939 100.663 39.3914 101.892 40.08C103.138 40.7671 104.21 41.7398 105.108 42.9982C106.005 44.2394 106.528 45.68 106.677 47.3199C106.84 49.098 106.505 50.7734 105.674 52.3462C104.86 53.9174 103.666 55.1489 102.094 56.0407C104.469 56.5031 106.351 57.4889 107.742 58.9983C109.133 60.5077 109.929 62.3586 110.129 64.551C110.286 66.2772 110.034 67.9974 109.372 69.7113C108.726 71.4064 107.748 72.8097 106.44 73.9212C105.147 75.0139 103.492 75.7653 101.476 76.1754C100.211 76.43 97.1372 76.7973 92.255 77.2773L79.3337 78.4554L75.8724 40.4943ZM84.1132 46.1136L84.9136 54.8918L89.9371 54.4338C92.9236 54.1615 94.7754 53.9491 95.4926 53.7967C96.7904 53.5217 97.7766 52.9792 98.4512 52.1692C99.1416 51.3404 99.4308 50.3131 99.3191 49.0875C99.212 47.9136 98.7975 46.994 98.0754 46.3288C97.369 45.6448 96.3699 45.2833 95.0783 45.2444C94.3109 45.2273 92.1232 45.3833 88.5152 45.7123L84.1132 46.1136ZM85.4897 61.2101L86.4152 71.3607L93.5103 70.7137C96.2723 70.4619 98.0174 70.2244 98.7456 70.0014C99.8661 69.6903 100.744 69.1055 101.379 68.2469C102.03 67.3694 102.295 66.2574 102.172 64.9109C102.068 63.7716 101.704 62.83 101.079 62.0863C100.454 61.3426 99.5984 60.8375 98.5124 60.571C97.4435 60.3029 95.1656 60.3278 91.6784 60.6458L85.4897 61.2101Z" fill="#233647"/>
<rect x="67" y="92" width="12" height="12" fill="#233647"/>
<rect x="41" y="102" width="12" height="12" fill="#233647"/>
<rect x="41" y="122" width="12" height="12" fill="#233647"/>
<rect x="67" y="112" width="12" height="12" fill="#233647"/>
<rect x="67" y="131" width="12" height="12" fill="#233647"/>
<rect x="67" y="156" width="12" height="23" fill="#233647"/>
<rect x="106" y="92" width="12" height="12" fill="#233647"/>
<rect x="106" y="112" width="12" height="12" fill="#233647"/>
<rect x="106" y="131" width="12" height="12" fill="#233647"/>
<rect x="87" y="92" width="12" height="12" fill="#233647"/>
<rect x="87" y="112" width="12" height="12" fill="#233647"/>
<rect x="87" y="131" width="12" height="12" fill="#233647"/>
<rect x="20" y="175" width="140" height="5" fill="#233647"/>
</svg>
