<?xml version="1.0" encoding="utf-8"?>
<!-- Generator: Adobe Illustrator 25.4.1, SVG Export Plug-In . SVG Version: 6.00 Build 0)  -->
<svg version="1.1" id="Layer_1" xmlns="http://www.w3.org/2000/svg" xmlns:xlink="http://www.w3.org/1999/xlink" x="0px" y="0px"
	 viewBox="0 0 200 200" style="enable-background:new 0 0 200 200;" xml:space="preserve">
<style type="text/css">
	.st0{fill:#FFA400;}
	.st1{fill:#FFA400;fill-opacity:0;stroke:#233647;stroke-width:4;}
	.st2{fill-opacity:0;stroke:#233647;stroke-width:4;}
	.st3{fill:#C4C4C4;stroke:#000000;stroke-miterlimit:10;}
	.st4{fill:#FFD25C;}
	.st5{fill:#FFD25C;fill-opacity:0;stroke:#233647;stroke-width:4;}
	.st6{fill:#233647;}
	.st7{font-family:'ArialMT';}
	.st8{font-size:73.2488px;}
	.st9{fill:none;stroke:#233647;stroke-width:4.11;stroke-miterlimit:16.45;}
	.st10{fill:#D0F1FF;}
	.st11{fill:#D0F1FF;fill-opacity:0;stroke:#233647;stroke-width:4;}
	.st12{fill:#FFFFFF;}
</style>
<g id="Layer_7">
	<path id="cSsVR7PAX" class="st0" d="M115.6,126.7h43c5.7,0,10.4,4.7,10.4,10.4v61.4h-60.4v-64.9
		C108.6,129.8,111.7,126.7,115.6,126.7C115.6,126.7,115.6,126.7,115.6,126.7L115.6,126.7z"/>
	<path id="cSsVR7PAX-2" class="st1" d="M115.6,126.7h43c5.7,0,10.4,4.7,10.4,10.4v61.4h-60.4v-64.9
		C108.6,129.8,111.7,126.7,115.6,126.7C115.6,126.7,115.6,126.7,115.6,126.7L115.6,126.7z"/>
</g>
<g id="Layer_21">
	<path id="c8FcfFbo" class="st2" d="M172.1,198.5l-142.1,0.8"/>
</g>
<g id="Layer_20">
	<path id="a1wunVgT1S" class="st3" d="M45.3,66.2h70.3c5.9,0,10.6,4.7,10.6,10.6l0,0v122.5H34.7V76.8C34.7,71,39.5,66.2,45.3,66.2z"
		/>
</g>
<g id="Layer_19">
	<path id="h41yVscVha" class="st4" d="M73.1,5.6H136c5.2,0,9.5,4.2,9.5,9.5v184.1H63.7V15C63.7,9.8,67.9,5.6,73.1,5.6z"/>
	<path id="h41yVscVha-2" class="st5" d="M73.1,5.6H136c5.2,0,9.5,4.2,9.5,9.5v184.1H63.7V15C63.7,9.8,67.9,5.6,73.1,5.6z"/>
</g>
<g id="Layer_18">
	<g id="a6LkK6WPT">
		<g id="cFKSIq8Xu">
			<text transform="matrix(0.9959 -9.080639e-02 9.080639e-02 0.9959 84.4529 66.9966)" class="st6 st7 st8">B</text>
		</g>
		<g id="cFKSIq8Xu-2">
			<g>
				<text transform="matrix(0.9959 -9.080639e-02 9.080639e-02 0.9959 84.4529 66.9966)" class="st7 st8">B</text>
			</g>
			<g>
				<text transform="matrix(0.9959 -9.080639e-02 9.080639e-02 0.9959 84.4529 66.9966)" class="st9 st7 st8">B</text>
			</g>
		</g>
	</g>
</g>
<g id="Layer_16">
	<path id="b1CZd53RX" class="st10" d="M124.4,82.1h12v11.4h-12L124.4,82.1z"/>
	<path id="b1CZd53RX-2" class="st11" d="M124.4,82.1h12v11.4h-12L124.4,82.1z"/>
</g>
<g id="Layer_15">
	<path id="ecmuE3xa3" class="st10" d="M72.5,81.6h12V93h-12V81.6z"/>
	<path id="ecmuE3xa3-2" class="st11" d="M72.5,81.6h12V93h-12V81.6z"/>
</g>
<g id="Layer_14">
	<path id="ah9iLJISw" class="st10" d="M98.1,82.1h12v11.4h-12V82.1z"/>
	<path id="ah9iLJISw-2" class="st11" d="M98.1,82.1h12v11.4h-12V82.1z"/>
</g>
<g id="Layer_13">
	<path id="d1F5zvXhg6" class="st10" d="M123.2,108h12v11.4h-12V108z"/>
	<path id="d1F5zvXhg6-2" class="st11" d="M123.2,108h12v11.4h-12V108z"/>
</g>
<g id="Layer_12">
	<path id="a2GTjVX5Wx" class="st10" d="M73.1,108h12v11.4h-12V108z"/>
	<path id="a2GTjVX5Wx-2" class="st11" d="M73.1,108h12v11.4h-12V108z"/>
</g>
<g id="Layer_11">
	<path id="bcqRDxLla" class="st10" d="M99.3,107.7h12v11.4h-12V107.7z"/>
	<path id="bcqRDxLla-2" class="st11" d="M99.3,107.7h12v11.4h-12V107.7z"/>
</g>
<g id="Layer_10">
	<path id="b2BbgWm7lZ" class="st10" d="M122.5,135.6h12V147h-12V135.6z"/>
	<path id="b2BbgWm7lZ-2" class="st11" d="M122.5,135.6h12V147h-12V135.6z"/>
</g>
<g id="Layer_9">
	<path id="aPO4SDCFF" class="st10" d="M72.7,135.2h12v11.4h-12V135.2z"/>
	<path id="aPO4SDCFF-2" class="st11" d="M72.7,135.2h12v11.4h-12V135.2z"/>
</g>
<g id="Layer_8">
	<path id="dyspeYYG3" class="st10" d="M99.2,135.4h12v11.4h-12V135.4z"/>
	<path id="dyspeYYG3-2" class="st11" d="M99.2,135.4h12v11.4h-12V135.4z"/>
</g>
<g id="Layer_6">
	<path id="czqDBf5JS" class="st12" d="M74.4,171.3h18.7V200H74.4V171.3z"/>
	<path id="czqDBf5JS-2" class="st2" d="M74.4,171.3h18.7V200H74.4V171.3z"/>
</g>
<g id="Layer_5">
	<path id="a1WnvV4F3d" class="st10" d="M43.1,107.9h12v11.4h-12V107.9z"/>
	<path id="a1WnvV4F3d-2" class="st11" d="M43.1,107.9h12v11.4h-12V107.9z"/>
</g>
<g id="Layer_4">
	<path id="m26T4ZTHD1" class="st10" d="M42.7,135.1h12v11.4h-12V135.1z"/>
	<path id="m26T4ZTHD1-2" class="st11" d="M42.7,135.1h12v11.4h-12V135.1z"/>
</g>
</svg>
