<?xml version="1.0" encoding="utf-8"?>
<!-- Generator: Adobe Illustrator 25.4.1, SVG Export Plug-In . SVG Version: 6.00 Build 0)  -->
<svg version="1.1" xmlns="http://www.w3.org/2000/svg" xmlns:xlink="http://www.w3.org/1999/xlink" x="0px" y="0px"
	 viewBox="0 0 200 200" style="enable-background:new 0 0 200 200;" xml:space="preserve">
<style type="text/css">
	.st0{fill:#CCFFFF;stroke:#000000;stroke-miterlimit:10;}
	.st1{fill:#C0FFDC;}
	.st2{fill-opacity:0;stroke:#233647;stroke-width:4;}
	.st3{fill:#233647;}
	.st4{font-family:'MyriadPro-Regular';}
	.st5{font-size:78.0359px;}
	.st6{enable-background:new    ;}
	.st7{fill:none;stroke:#233647;stroke-width:5;}
</style>
<g id="Layer_11">
	<g>
		<g>
			<g>
				<path id="a2m6MFo8YW" class="st0" d="M66.3,141.5c0,17.9-14.6,32.5-32.5,32.5c-17.9,0-32.5-14.6-32.5-32.5
					c0-17.9,14.6-32.5,32.5-32.5C51.7,108.9,66.3,123.5,66.3,141.5z"/>
			</g>
		</g>
	</g>
</g>
<g id="Layer_10">
	<g>
		<g>
			<g>
				<path id="a1e9HvIDgI_00000132067254194884740570000017085484749456936873_" class="st0" d="M198.9,141.5
					c0,17.9-14.6,32.5-32.5,32.5s-32.5-14.6-32.5-32.5c0-17.9,14.6-32.5,32.5-32.5S198.9,123.5,198.9,141.5z"/>
			</g>
		</g>
	</g>
</g>
<g id="Layer_9">
	<g>
		<g>
			<g>
				<g id="a1woDvjEEH">
					<line class="st1" x1="146.2" y1="95.2" x2="30.2" y2="145.2"/>
					<path d="M146.4,95.6c-19,9.1-38.3,17.5-57.6,25.9c-9.7,4.1-19.4,8.3-29.1,12.3l-14.6,6c-4.9,2-9.8,4-14.7,5.9l-0.4-0.9
						c4.8-2.3,9.6-4.4,14.3-6.6l14.4-6.5c9.6-4.3,19.2-8.5,28.9-12.7c19.3-8.4,38.7-16.6,58.4-24.2L146.4,95.6z"/>
				</g>
			</g>
		</g>
	</g>
</g>
<g id="Layer_8">
	<g>
		<g>
			<g>
				<g id="a1JlhSVPEX_00000160904963794671614620000013357916703053617818_">
					<line class="st1" x1="168.9" y1="144" x2="136.5" y2="73"/>
					<path d="M168.5,144.2c-3.1-5.7-6-11.6-8.9-17.4c-2.9-5.8-5.6-11.7-8.4-17.6c-2.7-5.9-5.4-11.8-7.9-17.8c-2.5-6-5-12-7.2-18.1
						l0.9-0.4c3.2,5.7,6.1,11.5,8.9,17.4c2.8,5.9,5.6,11.7,8.3,17.7c2.7,5.9,5.3,11.9,7.8,17.9c2.6,6,5,12,7.3,18.1L168.5,144.2z"/>
				</g>
			</g>
		</g>
	</g>
</g>
<g id="Layer_7">
	<g>
		<g>
			<g>
				<g id="b2blM556c">
					<line class="st1" x1="30.7" y1="145.8" x2="72.6" y2="82"/>
					<path d="M30.4,145.6c2.7-5.8,6.2-11.2,9.7-16.5c3.5-5.3,7-10.6,10.5-15.9c3.5-5.3,7.1-10.5,10.7-15.8c1.8-2.6,3.6-5.2,5.4-7.9
						c1.8-2.6,3.6-5.2,5.5-7.8l0.8,0.5c-1.6,2.7-3.3,5.4-5,8.1c-1.7,2.7-3.3,5.4-5.1,8.1c-3.4,5.4-6.8,10.8-10.3,16.1
						c-3.4,5.3-6.9,10.7-10.4,16c-3.5,5.3-7,10.6-11.3,15.4L30.4,145.6z"/>
				</g>
			</g>
		</g>
	</g>
</g>
<g id="Layer_6">
	<g>
		<g>
			<g>
				<g id="a4BtAd3ZMp_00000084519078746290011630000015665068949886577582_">
					<line class="st1" x1="89.7" y1="82.6" x2="48.1" y2="82.1"/>
					<path d="M89.7,83.1c-3.5,0.6-7,0.8-10.4,0.9c-3.5,0.1-6.9,0-10.4,0c-3.5-0.1-6.9-0.2-10.4-0.4c-3.5-0.2-6.9-0.5-10.4-0.9l0-1
						c3.5-0.3,6.9-0.5,10.4-0.7c3.5-0.1,6.9-0.2,10.4-0.2c3.5,0,6.9,0,10.4,0.2c3.5,0.2,6.9,0.5,10.4,1.1L89.7,83.1z"/>
				</g>
			</g>
		</g>
	</g>
</g>
<g id="Layer_5">
	<g>
		<g>
			<g>
				<path id="bFaqWH94q" class="st2" d="M0,0"/>
			</g>
		</g>
	</g>
</g>
<g id="Layer_4">
	<g>
		<g>
			<g>
				<g id="a57tpSdxM">
					<path class="st1" d="M121,81.3l18-10L121,81.3z"/>
					<path d="M120.8,80.8l18-10l0.5,0.9c-1.3,1.3-2.7,2.3-4.1,3.2c-1.4,1-2.9,1.8-4.4,2.6c-1.5,0.8-3.1,1.6-4.6,2.3
						c-1.6,0.7-3.2,1.4-4.8,1.9L120.8,80.8z M120.8,80.8c1.3-1.1,2.7-2.1,4.2-3.1c1.4-1,2.9-1.9,4.4-2.7c1.5-0.9,3-1.7,4.5-2.4
						c1.6-0.7,3.2-1.4,4.9-1.8l3.5-0.8l-3,1.7l-18,10L120.8,80.8z"/>
				</g>
			</g>
		</g>
	</g>
</g>
<g id="Layer_3">
	<g id="b3TfWwfpP8_00000145773389564230640570000011259483773788549002_">
		<g>
			<text transform="matrix(0.9959 -9.078608e-02 9.078608e-02 0.9959 70.551 71.2887)" class="st3 st4 st5">C</text>
		</g>
		<g>
			<g>
				<g class="st6">
					<text transform="matrix(0.9959 -9.078608e-02 9.078608e-02 0.9959 70.551 71.2887)" class="st4 st5">C</text>
				</g>
				<g class="st6">
					<text transform="matrix(0.9959 -9.078608e-02 9.078608e-02 0.9959 70.551 71.2887)" class="st7 st4 st5">C</text>
				</g>
			</g>
		</g>
	</g>
</g>
<g id="Layer_1">
	<g id="Layer_2">
	</g>
</g>
</svg>
