<svg width="597" height="417" viewBox="0 0 597 417" fill="none" xmlns="http://www.w3.org/2000/svg">
<path d="M289.725 5.36328C182.125 30.5633 162.892 81.8633 166.725 104.363C68.3251 91.1633 47.3916 169.863 49.2248 210.863C25.4499 230.5 -73.5432 302.2 102.457 383C322.457 484 273.225 319.363 379.725 372.363C464.925 414.763 503.452 313.667 513.952 287.5C513.952 287.5 513.588 267.053 543.452 230.5C572.457 195 590.957 221.5 596.457 148C600.857 89.2 502.952 54.5 431.225 87.8633C428.891 49.8633 397.325 -19.8367 289.725 5.36328Z" fill="#E4E3E3"/>
<path d="M289.718 5.36328C182.118 30.5633 162.884 81.8633 166.718 104.363C68.3177 91.1633 47.3843 169.863 49.2175 210.863C25.4426 230.5 -59.543 282.2 116.457 363C336.457 464 260.45 284.5 366.95 337.5C452.15 379.9 485.957 315.667 496.457 289.5C496.457 289.5 494.592 257.553 524.457 221C553.462 185.5 590.95 221.5 596.45 148C600.85 89.2 502.945 54.5 431.217 87.8633C428.884 49.8633 397.318 -19.8367 289.718 5.36328Z" fill="white"/>
<path d="M245.3 295.54C246.115 297.274 246.666 299.009 246.954 300.746C247.242 302.482 247.201 304.347 246.831 306.34C246.461 308.332 245.729 310.517 244.636 312.893C243.563 315.257 242.06 317.911 240.127 320.857C239.278 322.331 238.542 323.866 237.919 325.463C237.393 326.798 236.975 328.371 236.665 330.183C236.362 331.96 236.378 333.66 236.71 335.283L258.527 320.848L262.921 327.034L233.012 346.099C231.936 344.553 231.106 343.002 230.522 341.446C229.946 339.856 229.553 338.3 229.343 336.777C229.133 335.254 229.084 333.777 229.197 332.346C229.297 330.895 229.474 329.541 229.728 328.286C230.374 325.255 231.442 322.402 232.931 319.727C234.719 316.782 236.171 314.231 237.286 312.073C238.389 309.895 239.132 307.935 239.517 306.194C239.893 304.487 239.885 302.913 239.493 301.472C239.108 299.997 238.322 298.492 237.135 296.956C236.089 295.595 234.93 294.564 233.659 293.861C232.375 293.138 231.048 292.716 229.679 292.594C226.886 292.357 224.154 293.227 221.483 295.203C220.261 296.093 219.325 297.2 218.674 298.524C218.01 299.827 217.606 301.261 217.462 302.826C217.15 306.058 217.855 309.481 219.578 313.095L212.797 316.057C211.631 313.958 210.826 311.986 210.381 310.143C209.923 308.278 209.719 306.534 209.768 304.911C209.816 303.288 210.063 301.791 210.507 300.419C210.951 299.047 211.492 297.804 212.131 296.691C213.639 294.091 215.735 291.813 218.419 289.858C220.829 288.301 223.088 287.242 225.195 286.681C227.324 286.108 229.315 285.893 231.168 286.037C233.03 286.148 234.735 286.542 236.284 287.22C237.846 287.919 239.222 288.716 240.411 289.613C241.606 290.565 242.617 291.571 243.442 292.632C244.267 293.693 244.886 294.663 245.3 295.54Z" fill="black"/>
<path d="M306.65 284.477C307.599 287.001 308.24 289.479 308.573 291.911C309.279 296.812 308.907 301.447 307.457 305.814C306.706 308.034 305.755 309.97 304.606 311.624C303.422 313.395 302.006 314.935 300.357 316.243C298.74 317.566 296.92 318.594 294.896 319.328C292.803 320.087 290.697 320.495 288.578 320.553C284.331 320.645 280.251 319.493 276.337 317.097C274.417 315.925 272.629 314.507 270.973 312.845C269.294 311.191 267.768 309.31 266.394 307.203C265.044 305.087 263.903 302.791 262.971 300.313C262.04 297.835 261.387 295.361 261.014 292.892C260.258 287.929 260.572 283.316 261.955 279.052C262.64 276.935 263.567 275.007 264.736 273.267C265.906 271.528 267.326 270 268.999 268.683C270.662 267.343 272.552 266.289 274.668 265.522C276.901 264.713 279.089 264.275 281.231 264.208C285.603 264.097 289.702 265.229 293.528 267.605C295.408 268.739 297.173 270.164 298.823 271.882C302.169 275.3 304.778 279.498 306.65 284.477ZM299.708 286.994C298.672 284.238 297.364 281.779 295.784 279.615C294.218 277.419 292.445 275.655 290.463 274.321C288.505 272.978 286.4 272.123 284.147 271.756C281.886 271.365 279.593 271.591 277.267 272.434C274.988 273.261 273.141 274.536 271.728 276.258C270.305 277.958 269.282 279.947 268.659 282.226C268.059 284.496 267.855 286.977 268.048 289.67C268.256 292.332 268.878 295.04 269.914 297.796C272.047 303.469 275.179 307.689 279.311 310.453C281.292 311.787 283.39 312.658 285.605 313.066C287.834 313.442 290.065 313.225 292.298 312.415C294.554 311.597 296.405 310.334 297.85 308.626C299.287 306.895 300.317 304.89 300.941 302.611C302.252 297.873 301.84 292.667 299.708 286.994Z" fill="black"/>
<path d="M354.242 264.991C354.281 266.912 354.079 268.73 353.637 270.448C353.195 272.165 352.402 273.873 351.256 275.571C350.111 277.269 348.558 279.003 346.598 280.773C344.662 282.539 342.217 284.407 339.261 286.377C337.89 287.408 336.597 288.54 335.381 289.773C334.36 290.802 333.341 292.093 332.324 293.647C331.328 295.172 330.652 296.749 330.297 298.379L356.026 293.542L357.52 300.973L322.541 306.935C322.188 305.087 322.061 303.329 322.16 301.663C322.281 299.969 322.554 298.377 322.98 296.887C323.406 295.398 323.961 294.013 324.644 292.735C325.324 291.432 326.034 290.25 326.774 289.188C328.592 286.639 330.722 284.418 333.164 282.526C335.987 280.501 338.344 278.709 340.236 277.149C342.124 275.565 343.596 274.043 344.652 272.584C345.687 271.153 346.319 269.695 346.545 268.21C346.793 266.697 346.687 264.999 346.229 263.116C345.828 261.45 345.191 260.045 344.318 258.9C343.441 257.731 342.404 256.823 341.206 256.177C338.757 254.869 335.916 254.607 332.682 255.393C331.208 255.739 329.906 256.397 328.776 257.367C327.642 258.313 326.692 259.481 325.926 260.872C324.331 263.738 323.585 267.177 323.689 271.189L316.31 271.283C316.1 268.888 316.166 266.752 316.509 264.874C316.848 262.972 317.369 261.28 318.071 259.799C318.774 258.318 319.606 257.03 320.567 255.935C321.528 254.84 322.525 253.902 323.558 253.122C325.987 251.306 328.82 250.018 332.058 249.257C334.885 248.758 337.372 248.66 339.519 248.963C341.691 249.263 343.592 249.841 345.222 250.697C346.873 251.525 348.266 252.554 349.402 253.784C350.542 255.039 351.472 256.313 352.192 257.606C352.895 258.952 353.407 260.276 353.728 261.578C354.049 262.881 354.22 264.019 354.242 264.991Z" fill="black"/>
<path d="M404.424 258.53C404.301 260.449 403.948 262.25 403.364 263.931C402.78 265.613 401.846 267.258 400.563 268.869C399.28 270.479 397.588 272.095 395.488 273.717C393.412 275.338 390.82 277.022 387.712 278.77C386.26 279.698 384.877 280.733 383.564 281.874C382.461 282.826 381.338 284.039 380.195 285.515C379.075 286.964 378.269 288.489 377.779 290.089L403.804 287.156L404.668 294.682L369.338 298.057C369.141 296.186 369.162 294.423 369.401 292.768C369.663 291.086 370.069 289.517 370.618 288.061C371.168 286.606 371.836 285.265 372.624 284.04C373.41 282.79 374.216 281.662 375.043 280.657C377.067 278.246 379.374 276.187 381.965 274.478C384.945 272.665 387.442 271.05 389.457 269.633C391.47 268.191 393.064 266.78 394.238 265.402C395.389 264.049 396.14 262.641 396.49 261.175C396.864 259.683 396.901 257.981 396.603 256.069C396.343 254.376 395.827 252.927 395.054 251.72C394.279 250.488 393.323 249.506 392.184 248.774C389.856 247.287 387.048 246.817 383.762 247.363C382.265 247.6 380.913 248.161 379.707 249.046C378.499 249.906 377.455 251.002 376.575 252.334C374.746 255.077 373.715 258.454 373.482 262.466L366.126 262.016C366.118 259.611 366.363 257.483 366.862 255.635C367.359 253.761 368.02 252.111 368.844 250.685C369.668 249.258 370.604 248.034 371.653 247.012C372.702 245.99 373.774 245.127 374.868 244.425C377.439 242.792 380.368 241.714 383.656 241.193C386.513 240.903 388.997 240.989 391.11 241.449C393.247 241.908 395.092 242.625 396.643 243.599C398.217 244.547 399.518 245.677 400.546 246.989C401.575 248.325 402.394 249.665 403.003 251.008C403.59 252.403 403.988 253.762 404.199 255.086C404.409 256.41 404.484 257.558 404.424 258.53Z" fill="black"/>
<g clip-path="url(#clip0_357_1267)">
<path d="M334.803 119.927C333.405 118.491 330.565 119.614 325.256 120.818C322.933 121.342 320.235 121.874 317.95 122.266C318.081 119.072 317.541 115.311 315.902 110.875C311.857 100.074 304.238 98.8184 307.154 93.6952C307.726 92.7104 308.045 92.9025 309.979 91.1315C311.944 89.3548 311.311 88.3109 312.736 87.011C314.161 85.7111 316.081 85.3866 316.184 84.928C316.288 84.4694 315.947 83.3084 315.947 83.3084C315.947 83.3084 316.79 82.4303 316.308 80.5107C316.051 79.4599 314.949 78.9422 311.466 79.6505C308.347 80.2913 298.198 81.3249 293.811 83.7702C290.315 82.0327 285.051 80.5916 278.857 82.6184C267.926 86.2138 265.336 85.972 262.807 84.3691C260.278 82.7662 259.098 83.5186 260.176 85.2649C261.176 86.9313 265.445 90.1262 275.183 87.3799C282.796 85.2155 287.65 86.9838 290.37 88.771C290.318 89.0003 290.266 89.2296 290.22 89.4893C289.222 89.3604 286.938 89.25 284.897 90.4445C282.171 92.0169 280.037 93.7307 280.037 93.7307C280.037 93.7307 283.771 95.3927 286.843 95.0116C288.04 94.8526 289.191 94.4509 290.179 94.0167C290.53 96.5882 291.414 99.155 292.731 101.171C295.856 105.99 296.026 111.828 294.799 114.535C293.572 117.242 288.737 122.188 279.202 123.139C269.697 124.084 263.93 126.377 258.463 130.969C257.132 132.094 255.987 133.719 255.214 135.651C254.475 136.071 253.771 136.515 253.225 136.962C251.147 138.634 249.614 140.707 249.996 141.923C250.379 143.139 251.596 142.756 253.102 141.724C253.384 141.546 253.695 141.363 254.038 141.174C253.984 142.753 254.131 144.39 254.537 146.072C254.965 147.876 256.019 154.241 255.799 155.255C255.411 156.896 253.891 158.527 252.276 159.14C250.686 159.718 249.571 159.642 248.593 161.487C247.615 163.331 246.383 173.98 245.406 175.323C244.881 176.048 245.023 176.649 245.169 177.093C245.092 177.359 244.974 177.569 244.729 177.771C243.766 178.514 242.671 177.525 242.671 177.525L239.943 178.407C239.943 178.407 238.84 185.172 238.72 185.884C238.634 186.434 239.222 186.388 239.741 186.134C244.336 183.964 249.983 179.497 251.24 176.784C251.891 175.376 251.377 168.535 252.53 166.783C253.118 165.89 254.419 164.77 255.98 163.696C257.233 162.993 258.917 162.241 260.131 161.671C263.17 160.26 266.326 158.639 267.991 157.107C268.818 156.482 269.639 155.483 270.227 153.742C270.879 151.832 271.12 150.249 271.797 148.303C272.725 145.683 274.102 143.952 275.777 142.983C279.192 141.063 280.617 142.306 286.096 142.702C298.194 143.536 306.872 139.825 312.262 134.651C313.555 134.506 314.809 134.148 315.982 133.522C322.543 129.921 326.988 127.276 326.988 127.276C326.988 127.276 323.017 134.51 321.785 135.836C320.843 136.859 321.233 137.602 320.546 138.138C319.584 138.881 318.489 137.891 318.489 137.891L315.761 138.774C315.761 138.774 314.657 145.538 314.538 146.251C314.451 146.8 315.04 146.754 315.559 146.501C318.25 145.249 322.004 142.952 324.742 140.091C326.173 138.821 327.978 136.352 328.443 135.638C329.565 133.892 334.058 127.441 335.268 125.491C336.442 123.515 336.206 121.393 334.803 119.927Z" fill="black"/>
<path d="M297.35 144.414C293.795 145.073 289.931 145.256 285.923 144.994C284.203 144.874 282.843 144.655 281.748 144.513C280.357 144.3 279.45 144.154 278.629 144.306C278.113 144.402 277.588 144.624 276.934 144.997C275.682 145.7 274.68 147.078 274.009 149.054C273.675 149.964 273.456 150.82 273.244 151.707C273.025 152.564 272.782 153.456 272.465 154.457C271.818 156.397 270.858 157.83 269.54 158.859C268.736 159.605 267.591 160.382 266.148 161.246L272.909 197.721L319.582 189.07L310.335 139.183C306.565 141.733 302.181 143.519 297.35 144.414Z" fill="#DB4335"/>
<path d="M267.718 220.246L268.916 226.71L268.4 226.806L267.451 225.757C266.103 226.792 264.566 227.83 263.229 228.078C257.851 229.075 254.703 224.636 253.797 219.75C252.937 215.108 254.453 209.553 259.862 208.551C262.353 208.089 264.395 208.59 265.258 208.838L266.073 213.238L265.496 213.345L264.079 211.128C262.729 209.777 262.009 209.283 259.903 209.454C257.533 209.893 256.497 211.592 256.248 214.149C256.114 215.46 256.178 217.332 256.532 219.244C257.016 221.853 257.692 223.297 258.087 224.072C259.139 226.356 260.691 227.607 263.182 227.145C264.428 226.914 265.74 225.855 266.047 224.793L265.287 220.697L263.042 220.454L262.941 219.908L269.383 218.714L269.484 219.26L267.718 220.246ZM280.902 224.394L280.801 223.848L282.754 222.858L280.257 218.205L274.15 219.337L273.47 224.485L275.665 224.8L275.767 225.346L270.844 226.258L270.743 225.712L272.541 224.563L275.16 205.967L276.072 205.798L285.193 222.281L287.297 222.612L287.399 223.159L280.902 224.394ZM275.429 209.621L274.291 218.4L279.79 217.381L275.429 209.621ZM294.649 222.254C292.127 222.722 289.851 222.484 288.927 222.248L288.05 217.514L288.657 217.401L290.13 219.922C291.481 221.272 292.701 221.58 294.521 221.399C296.892 220.96 298.542 219.179 298.103 216.812C297.765 214.991 296.708 214.371 295.272 213.915C294.029 213.486 292 213.392 290.268 212.865C288.699 212.371 287.098 211.193 286.704 209.069C286.131 205.973 288.353 203.208 291.604 202.605C293.549 202.245 295.683 202.571 296.613 202.838L297.434 207.268L296.857 207.375L295.44 205.158C294.552 204.099 293.842 203.32 291.731 203.46C289.817 203.815 288.13 205.226 288.546 207.472C288.889 209.323 289.776 210.037 291.527 210.498C292.65 210.792 294.569 210.97 296.029 211.389C297.828 211.935 299.522 212.939 299.961 215.306C300.563 218.553 298.508 221.539 294.649 222.254ZM302.709 219.787L304.723 218.786L301.681 202.369L299.441 202.157L299.34 201.611L312.345 199.2L313.478 204.295L312.901 204.402C311.917 202.826 310.857 201.516 309.519 200.571L304.05 201.585L305.478 209.293L308.243 208.78C309.098 207.963 309.657 206.572 309.613 204.98L310.221 204.867L311.655 212.605L311.047 212.718C310.518 211.215 309.491 210.087 308.406 209.66L305.641 210.173L307.216 218.669L313.111 217.577C314.073 215.986 314.738 213.634 315.011 211.889L315.558 211.787L316.216 217.88L302.785 220.37L302.678 219.793L302.709 219.787ZM331.768 214.966L318.854 217.36L318.753 216.814L320.767 215.813L317.724 199.396L315.485 199.183L315.384 198.637L322.19 197.375L322.291 197.922L320.186 198.94L323.29 215.69L328.638 214.699C329.601 213.108 330.295 210.751 330.538 209.011L331.085 208.91L331.768 214.966ZM346.475 212.241L333.561 214.634L333.459 214.088L335.474 213.087L332.431 196.67L330.192 196.457L330.09 195.911L336.897 194.65L336.998 195.196L334.893 196.214L337.997 212.964L343.345 211.973C344.307 210.382 345.002 208.025 345.245 206.285L345.792 206.184L346.475 212.241Z" fill="black"/>
<path d="M281.397 163.575L279.786 163.873L279.05 159.898L289.016 158.051C291.356 157.617 293.449 157.888 294.903 158.78C297.276 160.223 299.015 163.668 299.965 168.796C301.118 175.017 300.374 179.141 297.771 181.036C296.607 181.879 294.34 182.707 292.062 183.13L283.645 184.69L282.908 180.715L284.518 180.416L281.397 163.575ZM291.386 179.143C294.181 178.625 294.447 177.007 293.013 169.269C292.281 165.324 291.595 163.317 290.744 162.627C290.176 162.104 289.413 162.057 287.626 162.42L290.747 179.262L291.386 179.143ZM309.83 175.725L310.833 175.539L311.569 179.514L303.487 181.012L302.75 177.037L303.753 176.851L301.863 166.655L300.86 166.841L300.129 162.896L307.209 161.584L309.83 175.725ZM306.783 157.08C307.12 158.901 305.9 160.288 303.652 160.705C301.373 161.128 299.736 160.27 299.405 158.479C299.067 156.658 300.287 155.271 302.627 154.837C304.82 154.462 306.462 155.351 306.783 157.08Z" fill="#FFD4B3"/>
</g>
<defs>
<clipPath id="clip0_357_1267">
<rect width="183.969" height="183.969" fill="white" transform="translate(183.268 76.7947) rotate(-10.5003)"/>
</clipPath>
</defs>
</svg>
