<svg width="597" height="417" viewBox="0 0 597 417" fill="none" xmlns="http://www.w3.org/2000/svg">
<path d="M289.725 5.36328C182.125 30.5633 162.892 81.8633 166.725 104.363C68.3251 91.1633 47.3916 169.863 49.2248 210.863C25.4499 230.5 -73.5432 302.2 102.457 383C322.457 484 273.225 319.363 379.725 372.363C464.925 414.763 503.452 313.667 513.952 287.5C513.952 287.5 513.588 267.053 543.452 230.5C572.457 195 590.957 221.5 596.457 148C600.857 89.2 502.952 54.5 431.225 87.8633C428.891 49.8633 397.325 -19.8367 289.725 5.36328Z" fill="#E4E3E3"/>
<path d="M289.718 5.36328C182.118 30.5633 162.884 81.8633 166.718 104.363C68.3177 91.1633 47.3843 169.863 49.2175 210.863C25.4426 230.5 -59.543 282.2 116.457 363C336.457 464 260.45 284.5 366.95 337.5C452.15 379.9 485.957 315.667 496.457 289.5C496.457 289.5 494.592 257.553 524.457 221C553.462 185.5 590.95 221.5 596.45 148C600.85 89.2 502.945 54.5 431.217 87.8633C428.884 49.8633 397.318 -19.8367 289.718 5.36328Z" fill="white"/>
<path d="M354.133 224.253C359.826 236.858 361.558 263.083 357.156 271.583C352.752 280.081 340.654 290.222 331.976 292.236C317.05 295.701 310.723 286.281 301.13 290.99C291.536 295.7 290.694 313.088 296.201 316.956C301.708 320.824 317.18 323.848 330.621 318.875C344.061 313.902 383.448 308.972 382.268 261.086C381.088 213.2 374.998 203.668 371.678 192.179C368.275 180.394 368.029 169.194 359.633 169.028C351.239 168.861 338.574 172.645 338.848 180.098C342.463 197.272 348.861 208.296 354.133 224.253Z" fill="#FCAFC0"/>
<path d="M321.097 147.349C323.349 158.07 329.126 161.039 337.61 158.663C346.094 156.287 355.11 143.929 353.816 134.593C352.522 125.257 347.551 123.737 339.882 123.709C332.215 123.68 319.479 138.441 321.097 147.349Z" fill="#FCAFC0"/>
<path d="M283.762 184.06C276.086 185.376 266.146 190.989 260.405 196.533C249.688 207.49 244.807 215.492 245.818 227.696C246.828 239.899 251.341 260.621 263.231 268.354C275.012 275.454 279.962 279.816 301.237 276.819C322.513 273.823 333.701 262.785 338.076 256.823C342.453 250.862 348.461 238.758 340.33 233.638C336.936 231.614 329.949 232.812 325.762 234.182C321.684 236.184 323.666 247.058 317.109 250.788C305.088 256.757 288.4 262.691 276.455 251.06C264.51 239.429 276.653 236.599 283.378 235.446C289.004 233.831 314.947 232.128 321.617 226.424C328.286 220.721 336.098 214.367 327.927 201.437C319.756 188.507 306.825 180.105 283.762 184.06ZM286.158 203.24C293.241 201.374 307.693 199.599 309.358 208.433C310.313 213.481 296.306 215.18 291.348 216.03C287.416 216.704 271.083 221.555 270.643 217.07C269.676 210.071 278.967 204.473 286.158 203.24Z" fill="#FCAFC0"/>
<path d="M169.502 297.605C165.402 296.903 164.757 268.617 163.696 262.444C162.635 256.27 154.075 207.428 149.328 192.656C144.581 177.885 142.263 164.422 145.746 158.375C149.23 152.327 158.142 153.146 164.367 154.848C170.592 156.55 173.866 192.226 174.995 200.017C176.124 207.807 175.842 207.036 176.636 211.344C177.429 215.651 177.533 228.186 179.877 225.821C182.222 223.457 179.658 207.002 201.854 202.842C224.051 198.682 228.475 207.129 232.621 216.65C236.766 226.171 244.996 273.928 241.083 278.374C237.169 282.82 224.638 289.327 220.972 282.402C217.308 275.479 223.793 228.994 208.903 225.73C194.012 222.466 187.55 238.919 185.631 245.787C183.713 252.655 192.613 284.156 188.658 290.791C184.46 295.965 173.601 298.307 169.502 297.605Z" fill="#FCAFC0"/>
<path d="M399.875 187.311C396.682 173.498 390.282 153.696 387.28 142.735C384.278 131.775 379.115 115.094 375.5 97.9192C375.226 90.4662 387.891 86.6828 396.285 86.8494C404.681 87.0159 404.927 98.2152 408.33 110.001C411.65 121.489 421.009 164.685 422.961 178.94C424.912 193.195 424.312 201.705 415.565 203.33C406.818 204.955 403.068 201.124 399.875 187.311Z" fill="#FCAFC0"/>
<path d="M411.212 248.059C420.194 254.33 426.438 252.538 430.994 244.997C435.55 237.456 433.658 222.276 426.322 216.358C418.987 210.44 414.323 212.736 408.715 217.967C403.108 223.196 403.933 242.674 411.212 248.059Z" fill="#FCAFC0"/>
</svg>
