<svg width="216" height="118" viewBox="0 0 216 118" fill="none" xmlns="http://www.w3.org/2000/svg">
<g clip-path="url(#clip0_340_281)">
<path d="M77 1.5C77 1.5 52.8612 4 43.3612 15.5C33.8612 27 16.8612 30 16.8612 30C16.8612 30 1.86121 44.5 8.86121 64C15.8612 83.5 34.8613 80.5 34.8613 80.5C34.8613 80.5 48.8615 109.5 64.3613 102.5C79.861 95.5 91.861 113 115.861 112C139.861 111 143.861 112 149.361 99C154.861 86 184.861 102.5 184.861 102.5C184.861 102.5 209.861 92 205.861 80.5C201.861 69 219.361 58 213.861 47C208.361 36 165.361 38 170.361 15.5C175.361 -6.99999 121.861 6 121.861 6L77 1.5Z" fill="white" stroke="black"/>
<path d="M79.5 6.5C79.5 6.5 46.8612 9 37.3612 20.5C27.8612 32 10.8612 35 10.8612 35C10.8612 35 -4.13879 49.5 2.86121 69C9.86121 88.5 28.8613 85.5 28.8613 85.5C28.8613 85.5 42.8615 114.5 58.3613 107.5C73.861 100.5 85.861 118 109.861 117C133.861 116 137.861 117 143.361 104C148.861 91 178.861 107.5 178.861 107.5C178.861 107.5 203.861 97 199.861 85.5C195.861 74 213.361 63 207.861 52C202.361 41 159.361 43 164.361 20.5C169.361 -1.99999 115.861 11 115.861 11L79.5 6.5Z" fill="white" stroke="black"/>
<path d="M119.566 65.5997C119.191 65.0381 118.18 65.2357 116.347 65.3085C115.545 65.3397 114.619 65.3501 113.837 65.3397C114.077 64.2892 114.129 63.0099 113.858 61.4394C113.181 57.6118 110.734 56.7277 112.015 55.2092C112.265 54.918 112.359 55.0012 113.108 54.5331C113.869 54.0651 113.723 53.6803 114.275 53.337C114.827 52.9938 115.483 53.0042 115.545 52.8586C115.608 52.713 115.566 52.3073 115.566 52.3073C115.566 52.3073 115.9 52.0681 115.858 51.4025C115.837 51.0384 115.504 50.7992 114.306 50.82C113.233 50.8408 109.807 50.56 108.203 51.1008C107.151 50.3104 105.495 49.5095 103.318 49.8007C99.475 50.3208 98.632 50.0815 97.892 49.3951C97.153 48.7086 96.715 48.8854 96.965 49.5303C97.194 50.144 98.413 51.4649 101.808 51.1528C104.464 50.9032 105.964 51.7873 106.755 52.5466C106.724 52.6194 106.693 52.6922 106.662 52.7754C106.339 52.6714 105.589 52.4946 104.839 52.765C103.839 53.1186 103.027 53.5555 103.027 53.5555C103.027 53.5555 104.162 54.3355 105.203 54.3979C105.61 54.4187 106.016 54.3563 106.37 54.2731C106.328 55.1468 106.464 56.0517 106.776 56.8006C107.516 58.5895 107.214 60.5345 106.641 61.3562C106.068 62.1778 104.162 63.5196 100.944 63.2491C97.736 62.9787 95.684 63.3843 93.591 64.5701C93.08 64.8613 92.601 65.3293 92.226 65.9222C91.956 66.0158 91.695 66.1198 91.487 66.2342C90.695 66.6606 90.06 67.2535 90.112 67.6799C90.164 68.1064 90.591 68.0544 91.154 67.8047C91.258 67.7631 91.372 67.7215 91.497 67.6799C91.383 68.2 91.331 68.7512 91.362 69.3337C91.393 69.9577 91.352 72.1315 91.216 72.454C90.987 72.974 90.383 73.4213 89.81 73.5253C89.248 73.6189 88.883 73.5253 88.446 74.0765C88.008 74.6278 86.946 78.0809 86.54 78.4657C86.321 78.6737 86.332 78.8817 86.352 79.0378C86.311 79.121 86.259 79.1834 86.165 79.2354C85.8 79.4226 85.498 79.0274 85.498 79.0274L84.54 79.1522C84.54 79.1522 83.759 81.326 83.676 81.5548C83.613 81.7316 83.811 81.7524 83.999 81.7004C85.655 81.2636 87.8 80.1299 88.383 79.3082C88.685 78.8817 88.935 76.5831 89.425 76.0735C89.675 75.8135 90.175 75.5222 90.758 75.2622C91.216 75.1062 91.82 74.9606 92.258 74.8462C93.351 74.5654 94.497 74.2221 95.143 73.8165C95.455 73.6605 95.788 73.3796 96.09 72.8388C96.424 72.2459 96.601 71.7363 96.944 71.133C97.413 70.3218 97.976 69.8329 98.59 69.6145C99.84 69.1881 100.236 69.6873 102.027 70.1554C105.985 71.1747 109.088 70.4778 111.192 69.0945C111.629 69.1257 112.067 69.0841 112.494 68.9489C114.889 68.1584 116.524 67.5551 116.524 67.5551C116.524 67.5551 114.764 69.7081 114.275 70.0722C113.9 70.353 113.983 70.6234 113.723 70.7586C113.358 70.9458 113.056 70.5506 113.056 70.5506L112.098 70.6754C112.098 70.6754 111.317 72.8492 111.234 73.078C111.171 73.2548 111.369 73.2756 111.557 73.2236C112.525 72.974 113.91 72.4436 114.993 71.6635C115.545 71.3307 116.295 70.6234 116.493 70.4154C116.972 69.9057 118.857 68.044 119.378 67.4719C119.888 66.8895 119.941 66.1718 119.566 65.5997Z" fill="black"/>
<path d="M105.65 71.4139C104.432 71.4139 103.14 71.237 101.828 70.9042C101.266 70.7586 100.828 70.6026 100.474 70.4882C100.026 70.3322 99.7353 70.2281 99.4543 70.2281C99.2773 70.2281 99.0893 70.2698 98.8493 70.353C98.3913 70.509 97.9753 70.9042 97.6313 71.5179C97.4643 71.7987 97.3393 72.0691 97.2143 72.3499C97.0893 72.6204 96.9543 72.9012 96.7873 73.2132C96.4543 73.8165 96.0483 74.2325 95.5483 74.4925C95.2363 74.6902 94.8093 74.8774 94.2773 75.075V87.5769H110.275V70.4778C108.869 71.0914 107.306 71.4139 105.65 71.4139Z" fill="#DB4335"/>
<path d="M91.1738 94.7224V96.9378H90.9968L90.7468 96.5321C90.2368 96.7921 89.6638 97.0418 89.2058 97.0418C87.3618 97.0418 86.5918 95.3776 86.5918 93.7031C86.5918 92.1117 87.4348 90.3644 89.2888 90.3644C90.1428 90.3644 90.7888 90.6556 91.0598 90.7908V92.2989H90.8618L90.5288 91.4773C90.1638 90.9468 89.9558 90.7388 89.2478 90.666C88.4348 90.666 87.9868 91.1652 87.7478 91.9973C87.6228 92.4238 87.5288 93.0478 87.5288 93.7031C87.5288 94.5976 87.6648 95.1176 87.7478 95.3984C87.9558 96.2201 88.3938 96.7297 89.2478 96.7297C89.6748 96.7297 90.1748 96.4593 90.3408 96.1265V94.7224L89.6118 94.5039V94.3167H91.8198V94.5039L91.1738 94.7224ZM95.2878 96.9066V96.7193L95.9958 96.5113L95.4548 94.816H93.3608L92.8198 96.4801L93.5278 96.7193V96.9066H91.8408V96.7193L92.5068 96.4489L94.5178 90.4476H94.8298L96.8398 96.4697L97.5168 96.7089V96.8962L95.2878 96.9066ZM94.3818 91.6749L93.4658 94.5143H95.3508L94.3818 91.6749ZM99.9748 97.0418C99.1108 97.0418 98.3708 96.8234 98.0788 96.6881V95.0656H98.2878L98.6208 95.9913C98.9858 96.5217 99.3708 96.6985 99.9848 96.7505C100.798 96.7505 101.454 96.2617 101.454 95.4504C101.454 94.8264 101.141 94.5559 100.694 94.3167C100.308 94.0983 99.6418 93.9423 99.0998 93.6615C98.6108 93.4014 98.1518 92.9126 98.1518 92.1845C98.1518 91.1236 99.0578 90.3436 100.173 90.3436C100.839 90.3436 101.527 90.5828 101.818 90.7284V92.2469H101.621L101.287 91.4253C101.058 91.0196 100.871 90.718 100.162 90.6348C99.5058 90.6348 98.8608 90.9988 98.8608 91.7685C98.8608 92.403 99.1108 92.6942 99.6628 92.9542C100.017 93.1206 100.642 93.2974 101.1 93.5263C101.662 93.8175 102.162 94.2543 102.162 95.0656C102.162 96.1785 101.298 97.0418 99.9748 97.0418ZM102.797 96.7193L103.526 96.5113V90.8844L102.797 90.6764V90.4892H107.255L107.317 92.2469H107.12C106.89 91.6645 106.62 91.1652 106.234 90.77H104.36V93.4118H105.307C105.641 93.1934 105.911 92.767 105.995 92.2365H106.203V94.8888H105.995C105.911 94.3583 105.641 93.9215 105.307 93.7135H104.36V96.6257H106.38C106.797 96.1577 107.161 95.4192 107.359 94.8576H107.547L107.39 96.917H102.787V96.7193H102.797ZM112.723 96.9066H108.296V96.7193L109.026 96.5113V90.8844L108.296 90.6764V90.4892H110.629V90.6764L109.869 90.8844V96.6257H111.702C112.119 96.1577 112.494 95.4192 112.681 94.8576H112.869L112.723 96.9066ZM117.764 96.9066H113.337V96.7193L114.066 96.5113V90.8844L113.337 90.6764V90.4892H115.67V90.6764L114.91 90.8844V96.6257H116.743C117.16 96.1577 117.535 95.4192 117.722 94.8576H117.909L117.764 96.9066Z" fill="black"/>
<path d="M98.0071 76.7079H97.4551V75.3454H100.871C101.673 75.3454 102.35 75.5638 102.777 75.9487C103.475 76.5727 103.839 77.8208 103.839 79.5786C103.839 81.7108 103.34 83.0317 102.361 83.4997C101.923 83.7078 101.121 83.843 100.34 83.843H97.4551V82.4804H98.0071V76.7079ZM100.361 82.4804C101.319 82.4804 101.506 81.9604 101.506 79.3082C101.506 77.956 101.402 77.2488 101.163 76.9679C101.007 76.7599 100.757 76.6975 100.142 76.7079V82.4804H100.361ZM106.683 82.4804H107.026V83.843H104.256V82.4804H104.6V78.9857H104.256V77.6336H106.683V82.4804ZM106.818 76.1151C106.818 76.7391 106.329 77.124 105.558 77.124C104.777 77.124 104.287 76.7391 104.287 76.1255C104.287 75.5014 104.777 75.1166 105.579 75.1166C106.329 75.127 106.818 75.5222 106.818 76.1151Z" fill="#FFD4B3"/>
<path d="M45.4515 77.5538C45.2332 78.4887 44.8618 79.3138 44.3373 80.0293C43.8128 80.7448 43.1772 81.3295 42.4303 81.7835C41.6835 82.2376 40.8615 82.5385 39.9644 82.6863C39.0699 82.8225 38.1378 82.7773 37.1679 82.5508C36.198 82.3242 35.3409 81.9577 34.5966 81.4511C33.8434 80.9301 33.237 80.3079 32.7775 79.5844C32.309 78.8466 32.004 78.0421 31.8624 77.1711C31.7091 76.2973 31.7417 75.393 31.96 74.4582C32.1784 73.5233 32.5313 72.7247 33.0187 72.0622C33.5089 71.388 34.0769 70.8552 34.7229 70.4639C35.3571 70.0698 36.0099 69.8341 36.681 69.7567L37.2023 72.1151C36.4672 72.2022 35.8211 72.4887 35.264 72.9748C34.7068 73.4608 34.33 74.1245 34.1335 74.9658C33.9425 75.7838 33.9661 76.5533 34.2043 77.2744C34.4453 77.9838 34.8637 78.5929 35.4596 79.1018C36.0582 79.599 36.8132 79.954 37.7247 80.1669C38.6361 80.3798 39.4775 80.3915 40.2489 80.2019C41.0112 79.998 41.6589 79.6255 42.1919 79.0846C42.7249 78.5436 43.087 77.8642 43.278 77.0462C43.4336 76.3801 43.4483 75.7366 43.3223 75.1157C43.1845 74.492 42.9156 73.9547 42.5157 73.504C42.104 73.0505 41.5652 72.7459 40.8991 72.5903L39.9 72.357L41.1003 71.4913L39.9704 76.3291L37.9547 75.8583L39.3876 69.7234L40.7022 70.0305C41.7071 70.2652 42.5556 70.642 43.2477 71.1611C43.9398 71.6801 44.4806 72.2931 44.87 73.0002C45.2504 73.6929 45.4904 74.4329 45.5899 75.2202C45.6778 76.0047 45.6316 76.7826 45.4515 77.5538Z" fill="black"/>
<path d="M46.7251 72.4565L36.291 62.8462L37.56 59.9435L51.7002 61.0765L50.6331 63.5174L47.6121 63.2379L45.5355 67.9878L47.785 70.0321L46.7251 72.4565ZM43.8376 66.4794L45.3517 63.0159L38.3388 62.386L38.6128 61.7592L43.8376 66.4794Z" fill="black"/>
<path d="M54.932 57.3043C54.4648 58.0168 53.9001 58.5936 53.2378 59.0346C52.582 59.4656 51.8786 59.7505 51.1275 59.8893C50.3729 60.0116 49.6187 59.969 48.8649 59.7617L49.2427 57.5772C50.0626 57.7274 50.826 57.6683 51.5329 57.4C52.2298 57.1251 52.7888 56.6666 53.2099 56.0244C53.4468 55.6631 53.5956 55.3158 53.6563 54.9825C53.7136 54.6326 53.6879 54.3216 53.5793 54.0495C53.4774 53.7674 53.2859 53.5342 53.0049 53.35C52.6737 53.1328 52.337 53.0555 51.9947 53.118C51.6489 53.1639 51.2874 53.343 50.9104 53.6554L48.8065 55.3539C47.963 56.0492 47.1256 56.44 46.2942 56.5262C45.4628 56.6124 44.6808 56.4153 43.9483 55.9349C43.306 55.5138 42.8411 54.9864 42.5533 54.3529C42.2722 53.7094 42.1804 53.0178 42.278 52.2781C42.3721 51.5219 42.6593 50.7775 43.1397 50.045C43.5806 49.3726 44.1057 48.8345 44.715 48.4304C45.3143 48.0198 45.9563 47.752 46.641 47.627C47.3222 47.4854 48.0096 47.4985 48.7032 47.6663L48.3503 49.8457C47.6436 49.6979 46.9949 49.7461 46.4043 49.9902C45.8037 50.2278 45.3126 50.6376 44.9309 51.2196C44.7072 51.5608 44.57 51.9013 44.5193 52.2412C44.4586 52.5744 44.4843 52.8854 44.5963 53.1742C44.7049 53.4463 44.8996 53.6744 45.1806 53.8587C45.4917 54.0627 45.8334 54.1433 46.2059 54.1005C46.5683 54.0512 46.9496 53.8636 47.3499 53.5377L49.3494 51.9C50.2261 51.1977 51.0651 50.7936 51.8664 50.6877C52.6743 50.5717 53.4545 50.7605 54.2071 51.254C54.8494 51.6751 55.3078 52.2125 55.5823 52.8661C55.8569 53.5197 55.9438 54.2296 55.8431 54.9959C55.7424 55.7622 55.4387 56.5316 54.932 57.3043Z" fill="black"/>
<path d="M58.3722 52.4229L48.4609 43.39L54.4626 36.8046L56.0591 38.2596L51.7063 43.0357L54.2473 45.3515L58.3576 40.8415L59.9541 42.2965L55.8438 46.8065L58.4247 49.1587L62.7775 44.3826L64.3739 45.8376L58.3722 52.4229Z" fill="black"/>
<path d="M65.4874 45.2066L57.0273 34.8021L58.9266 33.2577L66.0241 41.9863L70.479 38.3637L71.842 40.0396L65.4874 45.2066Z" fill="black"/>
<path d="M73.0542 39.5192L66.1777 28.0067L68.2793 26.7513L74.0482 36.4094L78.9782 33.4649L80.0852 35.3192L73.0542 39.5192Z" fill="black"/>
<path d="M81.3225 34.982L76.2305 22.576L84.5075 19.1796L85.3275 21.1779L79.3155 23.6449L80.7235 27.0752L85.9855 24.9158L86.8055 26.914L81.5435 29.0735L83.5865 34.0526L81.3225 34.982Z" fill="black"/>
<path d="M97.1078 30.2862C96.1458 30.4928 95.2118 30.5154 94.3058 30.3541C93.3998 30.1927 92.5698 29.8737 91.8178 29.3972C91.0648 28.9206 90.4238 28.3095 89.8958 27.5638C89.3768 26.8039 89.0138 25.9429 88.8068 24.9808C88.5978 24.007 88.5748 23.0729 88.7388 22.1786C88.9028 21.2843 89.2308 20.4653 89.7208 19.7217C90.2118 18.978 90.8388 18.3525 91.6008 17.8451C92.3608 17.326 93.2278 16.9618 94.2018 16.7527C95.1758 16.5436 96.1158 16.5197 97.0218 16.6811C97.9278 16.8424 98.7568 17.1614 99.5098 17.6379C100.26 18.1027 100.894 18.7093 101.41 19.4575C101.939 20.2032 102.308 21.0629 102.517 22.0367C102.723 22.9988 102.74 23.9341 102.567 24.8427C102.391 25.7396 102.058 26.5598 101.567 27.3034C101.077 28.0471 100.451 28.6784 99.6908 29.1976C98.9428 29.7142 98.0818 30.077 97.1078 30.2862ZM96.6398 28.1039C97.2848 27.9653 97.8528 27.7267 98.3448 27.3878C98.8348 27.0373 99.2348 26.6139 99.5448 26.1176C99.8678 25.6187 100.074 25.0651 100.164 24.4566C100.266 23.8455 100.247 23.2115 100.106 22.5545C99.9648 21.8975 99.7228 21.3172 99.3818 20.8136C99.0498 20.2958 98.6338 19.8757 98.1358 19.5532C97.6458 19.2165 97.1068 18.9946 96.5198 18.8876C95.9318 18.7806 95.3158 18.7964 94.6708 18.935C94.0368 19.071 93.4738 19.3085 92.9818 19.6473C92.4908 19.9861 92.0848 20.4108 91.7648 20.9213C91.4538 21.4176 91.2478 21.9713 91.1458 22.5823C91.0408 23.1816 91.0598 23.8098 91.2008 24.4668C91.3418 25.1238 91.5838 25.71 91.9278 26.2253C92.2718 26.7406 92.6868 27.1607 93.1738 27.4857C93.6728 27.8081 94.2178 28.0287 94.8078 28.1475C95.3948 28.2545 96.0058 28.24 96.6398 28.1039ZM90.7658 15.9258L90.2438 13.4971L92.6548 12.9794L93.1768 15.408L90.7658 15.9258ZM94.5848 15.1057L94.0628 12.677L96.4918 12.1555L97.0128 14.5841L94.5848 15.1057Z" fill="black"/>
<path d="M103.811 29.1987L103.424 15.7943L108.408 15.6504C109.32 15.6241 110.129 15.7689 110.834 16.0847C111.551 16.3881 112.117 16.852 112.531 17.4763C112.945 18.0886 113.165 18.8446 113.19 19.7442C113.217 20.6678 113.018 21.4599 112.593 22.1205C112.18 22.7806 111.606 23.2774 110.871 23.6107L114.103 28.9017L111.332 28.9817L107.87 23.1931L109.48 24.083L106.115 24.1801L106.258 29.1281L103.811 29.1987ZM106.053 22.021L108.626 21.9468C109.07 21.934 109.451 21.8389 109.77 21.6617C110.089 21.4724 110.334 21.2192 110.505 20.9022C110.676 20.5851 110.755 20.2227 110.743 19.8148C110.731 19.395 110.631 19.0377 110.442 18.7431C110.254 18.4364 109.995 18.2038 109.666 18.0452C109.337 17.8746 108.951 17.7957 108.507 17.8085L105.934 17.8827L106.053 22.021Z" fill="black"/>
<path d="M114.574 29.305L116.31 16.0078L125.145 17.1612L124.865 19.303L118.457 18.4666L118.012 21.8756L124.063 22.6655L123.783 24.8073L117.733 24.0175L117.281 27.4801L123.688 28.3165L123.409 30.4584L114.574 29.305Z" fill="black"/>
<path d="M126.847 31.6633L129.944 20.8479L126.604 19.8917L127.199 17.8151L136.197 20.3914L135.603 22.468L132.315 21.5266L129.218 32.3421L126.847 31.6633Z" fill="black"/>
<path d="M132.48 33.4131L142.352 23.226L145.221 24.5682L143.73 38.6751L141.317 37.5464L141.673 34.5335L136.977 32.3372L134.877 34.5341L132.48 33.4131ZM138.529 30.678L141.952 32.2795L142.76 25.2849L143.38 25.5747L138.529 30.678Z" fill="black"/>
<path d="M148.588 42.8628C147.807 42.3048 147.186 41.6471 146.724 40.8897C146.262 40.1322 145.964 39.3218 145.828 38.4583C145.693 37.5948 145.728 36.7202 145.933 35.8343C146.147 34.9555 146.544 34.1108 147.123 33.3003C147.702 32.4898 148.367 31.8369 149.119 31.3417C149.888 30.8436 150.694 30.5199 151.538 30.3706C152.399 30.2185 153.259 30.2429 154.118 30.4437C154.984 30.6348 155.808 31.0093 156.589 31.5672C157.371 32.1252 157.975 32.7556 158.401 33.4587C158.838 34.1687 159.114 34.8969 159.23 35.6432C159.353 36.3797 159.322 37.073 159.138 37.7231L156.759 37.3068C156.959 36.594 156.94 35.8874 156.702 35.1872C156.465 34.4869 155.995 33.8857 155.292 33.3835C154.609 32.8953 153.888 32.6241 153.131 32.5697C152.383 32.5223 151.66 32.6772 150.963 33.0343C150.275 33.3985 149.659 33.9614 149.115 34.7231C148.571 35.4847 148.24 36.2583 148.121 37.0437C148.02 37.8262 148.117 38.567 148.415 39.2658C148.712 39.9647 149.202 40.5582 149.886 41.0464C150.442 41.444 151.032 41.7027 151.654 41.8226C152.283 41.9328 152.882 41.8888 153.451 41.6907C154.027 41.4828 154.514 41.1006 154.912 40.5439L155.508 39.709L155.851 41.1486L151.808 38.2613L153.011 36.5768L158.138 40.2383L157.354 41.3369C156.754 42.1767 156.082 42.8177 155.339 43.2599C154.595 43.7022 153.822 43.9687 153.02 44.0594C152.235 44.1473 151.459 44.0874 150.693 43.8796C149.935 43.662 149.233 43.3231 148.588 42.8628Z" fill="black"/>
<path d="M157.283 50.5493L158.712 49.3678L163.956 49.7493C164.998 49.8223 165.812 49.8653 166.399 49.8783C167.002 49.8928 167.479 49.857 167.828 49.7707C168.177 49.6844 168.481 49.5342 168.74 49.3201C169.175 48.9606 169.402 48.539 169.422 48.0551C169.45 47.5804 169.288 47.1304 168.936 46.705C168.569 46.2611 168.123 45.9844 167.596 45.8749C167.079 45.7577 166.514 45.8278 165.901 46.0852L165.049 44.0101C165.687 43.6699 166.346 43.5064 167.026 43.5197C167.716 43.5254 168.37 43.6853 168.988 43.9995C169.623 44.3153 170.17 44.7507 170.629 45.3055C171.179 45.9713 171.541 46.6533 171.713 47.3515C171.894 48.059 171.881 48.7311 171.676 49.368C171.478 50.0141 171.088 50.578 170.506 51.0598C170.136 51.3657 169.713 51.5985 169.238 51.758C168.763 51.9175 168.221 52.0154 167.612 52.0515C167.013 52.08 166.298 52.0635 165.469 52.002L160.909 51.6853L164.614 56.1656L163.019 57.4849L157.283 50.5493Z" fill="black"/>
<path d="M166.076 63.3453C165.538 62.4225 165.316 61.4688 165.409 60.4841C165.502 59.4995 165.884 58.5473 166.557 57.6278C167.235 56.7186 168.171 55.9167 169.363 55.222C170.566 54.5212 171.725 54.1029 172.84 53.9671C173.955 53.8312 174.964 53.9657 175.867 54.3704C176.769 54.7751 177.489 55.4389 178.027 56.3617C178.577 57.3053 178.802 58.2642 178.703 59.2385C178.61 60.2231 178.227 61.1752 177.555 62.0948C176.892 63.0083 175.965 63.8124 174.773 64.5071C173.58 65.2018 172.418 65.6149 171.287 65.7464C170.172 65.8823 169.158 65.7509 168.245 65.3522C167.342 64.9475 166.619 64.2785 166.076 63.3453ZM168.013 62.2373C168.321 62.7661 168.745 63.1235 169.284 63.3095C169.833 63.4895 170.466 63.5028 171.182 63.3494C171.914 63.2004 172.701 62.8812 173.541 62.3919C174.38 61.9026 175.041 61.3791 175.521 60.8213C176.018 60.2679 176.316 59.7058 176.413 59.1349C176.517 58.5743 176.412 58.0245 176.098 57.4853C175.796 56.9669 175.376 56.6147 174.837 56.4286C174.298 56.2426 173.662 56.2242 172.93 56.3732C172.213 56.5265 171.435 56.8479 170.596 57.3372C169.766 57.8204 169.103 58.3388 168.606 58.8922C168.125 59.4499 167.828 60.0121 167.714 60.5787C167.605 61.1556 167.705 61.7085 168.013 62.2373Z" fill="black"/>
<path d="M168.898 68.5125L170.63 67.8523L175.474 69.8976C176.437 70.3013 177.194 70.6034 177.746 70.8042C178.313 71.0118 178.775 71.1309 179.134 71.1613C179.492 71.1917 179.828 71.1471 180.142 71.0274C180.669 70.8266 181.02 70.5003 181.194 70.0485C181.373 69.608 181.364 69.1298 181.168 68.614C180.963 68.0757 180.629 67.6702 180.165 67.3974C179.713 67.1203 179.155 67.0052 178.492 67.0523L178.352 64.8135C179.065 64.696 179.742 64.7528 180.382 64.984C181.033 65.2108 181.601 65.5723 182.086 66.0683C182.586 66.5713 182.964 67.1592 183.22 67.832C183.528 68.6394 183.651 69.4014 183.59 70.118C183.534 70.8459 183.306 71.4784 182.907 72.0156C182.513 72.5641 181.962 72.9729 181.256 73.2421C180.807 73.413 180.332 73.4977 179.831 73.4961C179.329 73.4946 178.785 73.4132 178.197 73.252C177.62 73.0865 176.949 72.8414 176.183 72.5168L171.966 70.7526L174.037 76.1855L172.102 76.9226L168.898 68.5125Z" fill="black"/>
<path d="M172.205 78.057L174.018 77.6701L178.492 80.4335C179.381 80.9799 180.083 81.3946 180.598 81.6775C181.126 81.9696 181.565 82.1581 181.915 82.2431C182.264 82.328 182.603 82.3354 182.932 82.2653C183.483 82.1476 183.88 81.879 184.122 81.4593C184.366 81.0513 184.43 80.5774 184.315 80.0376C184.195 79.4743 183.927 79.0223 183.511 78.6816C183.106 78.3385 182.573 78.1394 181.911 78.0843L182.115 75.8505C182.837 75.8436 183.497 76.0034 184.095 76.33C184.704 76.654 185.21 77.0982 185.612 77.6626C186.029 78.2363 186.313 78.8752 186.463 79.5793C186.643 80.4243 186.648 81.1962 186.478 81.8951C186.311 82.6056 185.989 83.1958 185.513 83.6656C185.039 84.1471 184.432 84.4667 183.693 84.6245C183.223 84.7246 182.741 84.7355 182.246 84.6571C181.75 84.5788 181.225 84.4149 180.668 84.1655C180.124 83.9136 179.498 83.5685 178.791 83.1304L174.895 80.7409L176.108 86.4269L174.083 86.8589L172.205 78.057Z" fill="black"/>
</g>
<defs>
<clipPath id="clip0_340_281">
<rect width="216" height="118" fill="white"/>
</clipPath>
</defs>
</svg>
