<svg width="598" height="417" viewBox="0 0 598 417" fill="none" xmlns="http://www.w3.org/2000/svg">
<path d="M290.707 5.36328C183.107 30.5633 163.874 81.8633 167.708 104.363C69.3075 91.1633 48.374 169.863 50.2072 210.863C26.4323 230.5 -72.5608 302.2 103.439 383C323.439 484 274.207 319.363 380.707 372.363C465.907 414.763 504.435 313.667 514.935 287.5C514.935 287.5 514.57 267.053 544.435 230.5C573.439 195 591.939 221.5 597.439 148C601.839 89.2 503.935 54.5 432.207 87.8633C429.874 49.8633 398.307 -19.8367 290.707 5.36328Z" fill="#E4E3E3"/>
<path d="M290.7 5.36328C183.1 30.5633 163.867 81.8633 167.7 104.363C69.3001 91.1633 48.3667 169.863 50.1999 210.863C26.4251 230.5 -58.5605 282.2 117.439 363C337.439 464 261.432 284.5 367.932 337.5C453.132 379.9 486.939 315.667 497.439 289.5C497.439 289.5 495.575 257.553 525.439 221C554.444 185.5 591.932 221.5 597.432 148C601.832 89.2 503.928 54.5 432.2 87.8633C429.867 49.8633 398.3 -19.8367 290.7 5.36328Z" fill="white"/>
<path d="M180.627 201.339L203.117 181.541L214.931 194.934C215.314 199.364 214.654 203.677 212.95 207.871C212.104 209.916 211.012 211.859 209.675 213.699C208.358 215.523 206.792 217.183 204.979 218.678C202.975 220.331 200.844 221.655 198.587 222.651C194.057 224.623 189.295 225.343 184.303 224.811C181.919 224.564 179.565 224.004 177.241 223.13C174.952 222.26 172.771 221.093 170.697 219.628C168.624 218.164 166.745 216.41 165.061 214.368C163.376 212.326 162.013 210.147 160.97 207.833C158.868 203.185 158.028 198.394 158.449 193.461C158.661 191.074 159.169 188.715 159.973 186.385C160.789 184.108 161.91 181.949 163.337 179.907C164.747 177.845 166.445 175.996 168.43 174.359C170.129 172.958 171.928 171.796 173.827 170.871C175.726 169.946 177.682 169.247 179.696 168.772C183.743 167.808 187.832 167.77 191.965 168.659L190.536 175.851C187.52 175.227 184.495 175.253 181.46 175.928C178.444 176.587 175.667 177.963 173.129 180.057C170.915 181.882 169.206 184.029 168.002 186.497C166.783 188.946 166.061 191.512 165.839 194.197C165.616 196.882 165.911 199.573 166.724 202.27C167.54 204.932 168.885 207.398 170.758 209.67C172.631 211.941 174.804 213.74 177.278 215.067C179.77 216.379 182.356 217.181 185.034 217.473C187.712 217.766 190.377 217.556 193.029 216.844C195.665 216.113 198.09 214.835 200.304 213.009C202.614 211.105 204.383 208.876 205.612 206.323C206.845 203.735 207.528 201.024 207.659 198.189L202.516 192.186L185.561 207.322L180.627 201.339Z" fill="black"/>
<path d="M274.986 168.282L267.788 173.429C264.172 169.618 260.496 165.879 256.76 162.214L230.828 177.1C231.395 182.071 232.068 187.058 232.846 192.059L224.837 194.91C223.635 185.002 222.832 175.055 222.427 165.069C222.043 155.071 221.941 145.026 222.121 134.932L231.434 130.32C239.159 135.988 246.634 141.98 253.86 148.296C261.074 154.591 268.116 161.253 274.986 168.282ZM228.874 138.372C228.839 143.739 228.935 149.066 229.164 154.352C229.382 159.616 229.716 164.889 230.166 170.172L251.95 157.684C248.272 154.239 244.524 150.928 240.707 147.75C236.889 144.573 232.945 141.447 228.874 138.372Z" fill="black"/>
<path d="M323.904 150.001C324.062 151.743 323.946 153.347 323.556 154.812C323.147 156.307 322.527 157.661 321.695 158.875C320.864 160.089 319.878 161.186 318.738 162.168C317.501 163.173 316.254 164.027 314.997 164.731C313.649 165.483 312.261 166.116 310.833 166.632C309.41 167.172 308.024 167.602 306.676 167.921C304.822 168.36 302.944 168.588 301.042 168.606C299.145 168.648 297.247 168.526 295.349 168.238C293.42 167.931 291.485 167.487 289.542 166.905C287.623 166.316 285.693 165.629 283.753 164.842L287.555 157.383C289.826 158.6 291.99 159.473 294.048 160.003C296.124 160.504 297.953 160.821 299.536 160.955C301.411 161.146 303.14 161.144 304.72 160.948C306.476 160.634 308.058 160.12 309.465 159.405C310.891 158.661 312.078 157.821 313.025 156.885C315 154.917 315.858 152.795 315.599 150.517C315.46 149.609 315.11 148.828 314.548 148.173C313.46 146.905 311.728 146.031 309.352 145.551C308.789 145.43 308.208 145.339 307.609 145.277C307.028 145.186 306.438 145.109 305.838 145.048C304.597 144.96 303.332 144.929 302.041 144.955C300.769 144.951 299.544 144.987 298.367 145.062C296.932 145.122 295.411 145.139 293.803 145.113C292.19 145.062 290.575 144.898 288.958 144.62C287.335 144.317 285.76 143.838 284.232 143.183C282.675 142.509 281.279 141.607 280.045 140.475C278.763 139.355 277.655 137.952 276.722 136.266C275.814 134.574 275.167 132.541 274.783 130.166C274.46 128.157 274.456 126.315 274.771 124.639C275.324 121.279 276.804 118.349 279.212 115.847C280.355 114.661 281.628 113.597 283.032 112.654C284.436 111.712 285.928 110.926 287.508 110.298C289.107 109.64 290.727 109.13 292.37 108.766C294.608 108.338 296.965 108.149 299.443 108.198C301.639 108.238 303.967 108.513 306.427 109.024C308.91 109.529 311.275 110.444 313.521 111.769L310.989 119.118C309.187 117.841 307.245 116.94 305.163 116.416C303.076 115.868 301.16 115.559 299.414 115.489C297.465 115.416 295.579 115.557 293.756 115.913C291.566 116.431 289.693 117.218 288.137 118.272C286.582 119.327 285.351 120.52 284.447 121.853C283.512 123.168 282.886 124.549 282.567 125.997C282.273 127.439 282.274 128.787 282.57 130.039C282.861 131.266 283.504 132.373 284.5 133.357C285.52 134.336 286.791 135.141 288.313 135.772C291.525 137.097 295.242 137.552 299.466 137.137C300.38 137.022 301.29 136.947 302.196 136.91C303.097 136.849 304.019 136.822 304.961 136.828C306.797 136.851 308.589 137.012 310.337 137.31C312.11 137.602 313.769 138.061 315.316 138.686C316.897 139.354 318.276 140.185 319.452 141.178C320.663 142.213 321.658 143.465 322.438 144.933C323.236 146.371 323.725 148.06 323.904 150.001Z" fill="black"/>
<path d="M342.618 131.487L364.631 130.022L364.965 137.14L342.957 138.791L343.409 150.399L375.413 147.744L375.752 155.049L336.633 158.186L334.4 105.345L374.671 103.663L374.596 110.755L341.89 112.129L342.618 131.487Z" fill="black"/>
<path d="M393.688 151.268L426.457 154.636L425.405 162.478L385.112 157.967L395.01 102.397L402.64 103.373L393.688 151.268Z" fill="black"/>
<path d="M444.528 158.634L476.63 166.026L474.617 173.679L435.19 164.221L451.881 110.301L459.332 112.212L444.528 158.634Z" fill="black"/>
<path d="M250.738 275.474C251.553 277.208 252.104 278.943 252.392 280.68C252.68 282.416 252.639 284.281 252.269 286.274C251.899 288.267 251.167 290.451 250.073 292.827C249 295.191 247.498 297.845 245.565 300.791C244.716 302.265 243.98 303.8 243.357 305.397C242.83 306.732 242.412 308.305 242.102 310.117C241.8 311.894 241.815 313.594 242.148 315.217L263.964 300.782L268.358 306.968L238.449 326.033C237.373 324.487 236.543 322.936 235.96 321.38C235.384 319.79 234.991 318.234 234.78 316.711C234.57 315.188 234.522 313.711 234.635 312.28C234.734 310.829 234.911 309.475 235.165 308.22C235.812 305.189 236.879 302.336 238.369 299.661C240.156 296.717 241.608 294.165 242.724 292.007C243.826 289.829 244.57 287.869 244.954 286.128C245.331 284.421 245.323 282.847 244.93 281.406C244.545 279.931 243.76 278.426 242.572 276.89C241.526 275.529 240.368 274.498 239.097 273.795C237.813 273.072 236.486 272.65 235.117 272.529C232.323 272.291 229.591 273.161 226.921 275.137C225.699 276.027 224.763 277.134 224.112 278.458C223.448 279.761 223.043 281.195 222.899 282.76C222.587 285.993 223.293 289.415 225.015 293.029L218.234 295.991C217.069 293.892 216.263 291.92 215.819 290.077C215.361 288.212 215.156 286.468 215.205 284.845C215.254 283.222 215.5 281.725 215.944 280.353C216.389 278.981 216.93 277.739 217.568 276.625C219.077 274.025 221.173 271.747 223.857 269.792C226.267 268.235 228.525 267.176 230.633 266.615C232.761 266.042 234.752 265.827 236.606 265.971C238.467 266.082 240.172 266.476 241.721 267.154C243.283 267.853 244.659 268.65 245.849 269.547C247.044 270.499 248.054 271.505 248.879 272.566C249.704 273.628 250.324 274.597 250.738 275.474Z" fill="black"/>
<path d="M312.088 264.411C313.037 266.935 313.677 269.413 314.01 271.845C314.716 276.746 314.344 281.381 312.894 285.748C312.143 287.968 311.193 289.904 310.044 291.558C308.86 293.329 307.443 294.869 305.794 296.177C304.177 297.5 302.357 298.528 300.334 299.262C298.241 300.021 296.134 300.429 294.016 300.487C289.769 300.579 285.689 299.427 281.775 297.031C279.854 295.859 278.066 294.442 276.41 292.779C274.731 291.125 273.205 289.244 271.832 287.137C270.481 285.021 269.34 282.725 268.409 280.247C267.477 277.769 266.825 275.295 266.451 272.826C265.696 267.863 266.01 263.25 267.393 258.986C268.077 256.869 269.004 254.941 270.174 253.202C271.343 251.462 272.764 249.934 274.436 248.617C276.099 247.277 277.989 246.223 280.106 245.456C282.339 244.647 284.526 244.209 286.668 244.143C291.04 244.031 295.139 245.163 298.966 247.539C300.846 248.673 302.611 250.098 304.26 251.816C307.607 255.234 310.216 259.432 312.088 264.411ZM305.145 266.928C304.109 264.172 302.801 261.713 301.221 259.549C299.656 257.353 297.882 255.589 295.901 254.255C293.943 252.912 291.837 252.057 289.585 251.69C287.324 251.299 285.03 251.525 282.705 252.369C280.425 253.195 278.579 254.47 277.165 256.193C275.743 257.892 274.72 259.881 274.096 262.16C273.496 264.43 273.293 266.911 273.486 269.604C273.694 272.266 274.315 274.974 275.351 277.73C277.484 283.403 280.617 287.623 284.748 290.388C286.73 291.722 288.828 292.592 291.042 293C293.271 293.376 295.502 293.159 297.735 292.349C299.991 291.532 301.842 290.268 303.288 288.56C304.725 286.829 305.755 284.824 306.378 282.545C307.689 277.807 307.278 272.602 305.145 266.928Z" fill="black"/>
<path d="M359.679 244.925C359.718 246.846 359.517 248.665 359.075 250.382C358.633 252.099 357.839 253.807 356.694 255.505C355.548 257.203 353.996 258.937 352.035 260.707C350.1 262.473 347.654 264.341 344.698 266.311C343.327 267.342 342.034 268.474 340.819 269.707C339.798 270.736 338.779 272.027 337.762 273.581C336.766 275.106 336.09 276.683 335.735 278.313L361.464 273.476L362.958 280.907L327.979 286.869C327.626 285.021 327.499 283.264 327.598 281.598C327.718 279.903 327.991 278.311 328.418 276.821C328.844 275.332 329.398 273.948 330.082 272.669C330.761 271.366 331.471 270.184 332.212 269.122C334.03 266.573 336.16 264.352 338.602 262.46C341.424 260.435 343.781 258.643 345.673 257.083C347.561 255.499 349.033 253.978 350.09 252.518C351.125 251.087 351.756 249.629 351.983 248.144C352.23 246.631 352.125 244.933 351.666 243.05C351.265 241.385 350.628 239.979 349.755 238.834C348.879 237.665 347.842 236.757 346.644 236.112C344.195 234.803 341.353 234.541 338.119 235.327C336.645 235.673 335.343 236.331 334.213 237.301C333.08 238.247 332.13 239.415 331.364 240.806C329.769 243.672 329.023 247.111 329.127 251.123L321.748 251.217C321.537 248.822 321.604 246.686 321.946 244.808C322.285 242.906 322.806 241.214 323.509 239.733C324.212 238.252 325.043 236.964 326.004 235.869C326.965 234.774 327.963 233.836 328.996 233.056C331.425 231.24 334.258 229.952 337.496 229.191C340.323 228.692 342.81 228.594 344.957 228.897C347.129 229.197 349.029 229.775 350.659 230.631C352.31 231.459 353.704 232.488 354.84 233.718C355.979 234.973 356.909 236.247 357.629 237.54C358.332 238.886 358.844 240.21 359.165 241.512C359.487 242.815 359.658 243.953 359.679 244.925Z" fill="black"/>
<path d="M412.503 245.649C412.169 247.543 411.619 249.294 410.852 250.9C410.086 252.507 408.976 254.039 407.523 255.498C406.069 256.956 404.209 258.376 401.943 259.756C399.7 261.137 396.938 262.524 393.655 263.918C392.11 264.68 390.621 265.556 389.19 266.545C387.988 267.368 386.738 268.45 385.439 269.791C384.165 271.107 383.197 272.533 382.532 274.069L408.722 274.032L408.748 281.607L373.262 281.055C373.273 279.174 373.489 277.424 373.91 275.806C374.356 274.163 374.933 272.649 375.639 271.263C376.346 269.877 377.159 268.618 378.077 267.487C378.997 266.332 379.923 265.3 380.855 264.393C383.134 262.221 385.654 260.429 388.418 259.017C391.58 257.545 394.241 256.216 396.4 255.03C398.56 253.819 400.3 252.593 401.619 251.353C402.913 250.136 403.815 248.819 404.325 247.402C404.861 245.96 405.087 244.272 405.001 242.339C404.931 240.628 404.578 239.13 403.943 237.845C403.309 236.536 402.467 235.454 401.416 234.6C399.266 232.865 396.528 232.087 393.202 232.266C391.688 232.337 390.283 232.745 388.986 233.491C387.69 234.212 386.531 235.186 385.51 236.412C383.389 238.936 381.991 242.179 381.315 246.141L374.055 244.881C374.312 242.489 374.791 240.402 375.491 238.619C376.193 236.813 377.032 235.246 378.008 233.919C378.985 232.592 380.051 231.479 381.206 230.579C382.362 229.679 383.522 228.941 384.687 228.363C387.423 227.024 390.453 226.278 393.779 226.123C396.65 226.151 399.11 226.51 401.159 227.202C403.232 227.894 404.986 228.81 406.42 229.95C407.88 231.066 409.048 232.333 409.924 233.75C410.8 235.192 411.465 236.614 411.922 238.017C412.351 239.468 412.597 240.863 412.66 242.202C412.723 243.54 412.67 244.69 412.503 245.649Z" fill="black"/>
<path d="M104.141 216.073C99.5817 220.788 94.0652 225.123 87.8673 228.954C85.1995 230.585 82.9591 231.694 81.1915 232.636C78.9122 233.785 77.4186 234.524 76.3664 235.612C75.7039 236.297 75.1634 237.178 74.589 238.416C73.4779 240.772 73.4482 243.863 74.5363 247.489C74.9992 249.184 75.5778 250.68 76.1967 252.214C76.7752 253.71 77.3551 255.284 77.9388 257.096C79.0256 260.643 79.1154 263.771 78.2508 266.678C77.8462 268.627 76.9727 270.979 75.7498 273.774L124.118 320.553L183.977 258.662L117.823 194.68C114.936 202.416 110.338 209.667 104.141 216.073Z" fill="#DB4335"/>
<path d="M100.732 261.169L98.6665 263.304L93.395 258.206L106.177 244.989C109.178 241.887 112.556 240.085 115.643 239.873C120.668 239.508 126.861 242.768 133.662 249.345C141.911 257.324 145.151 264.2 143.298 269.739C142.466 272.21 139.989 275.819 137.066 278.841L126.271 290.002L121 284.904L123.065 282.768L100.732 261.169V261.169ZM131.872 273.662C135.458 269.955 134.147 267.284 123.886 257.359C118.655 252.3 115.529 250.056 113.546 249.932C112.157 249.758 110.98 250.492 108.721 252.908L131.054 274.508L131.872 273.662ZM155.527 249.203L156.813 247.874L162.085 252.972L151.719 263.69L146.447 258.592L147.733 257.262L134.213 244.186L132.927 245.515L127.696 240.456L136.776 231.067L155.527 249.203ZM131.407 224.862C133.822 227.197 133.479 230.53 130.595 233.512C127.672 236.534 124.352 236.988 121.978 234.692C119.563 232.357 119.906 229.023 122.907 225.92C125.753 223.058 129.114 222.643 131.407 224.862V224.862Z" fill="#FFD4B3"/>
</svg>
