<svg width="242" height="121" viewBox="0 0 242 121" fill="none" xmlns="http://www.w3.org/2000/svg">
<g clip-path="url(#clip0_340_257)">
<path d="M197 118.5C201.694 118.5 205.5 114.694 205.5 110C205.5 105.306 201.694 101.5 197 101.5C192.306 101.5 188.5 105.306 188.5 110C188.5 114.694 192.306 118.5 197 118.5Z" fill="white" stroke="black"/>
<path d="M205.5 112C205.5 116.694 201.694 120.5 197 120.5C192.306 120.5 188.5 116.694 188.5 112C188.5 107.306 192.306 103.5 197 103.5C201.694 103.5 205.5 107.306 205.5 112Z" fill="white" stroke="black"/>
<path d="M238.5 9C238.5 13.6944 234.694 17.5 230 17.5C225.306 17.5 221.5 13.6944 221.5 9C221.5 4.3056 225.306 0.5 230 0.5C234.694 0.5 238.5 4.3056 238.5 9Z" fill="white" stroke="black"/>
<path d="M241.5 9C241.5 13.6944 237.694 17.5 233 17.5C228.306 17.5 224.5 13.6944 224.5 9C224.5 4.3056 228.306 0.5 233 0.5C237.694 0.5 241.5 4.3056 241.5 9Z" fill="white" stroke="black"/>
<path d="M11 54.5C15.6944 54.5 19.5 50.6944 19.5 46C19.5 41.3056 15.6944 37.5 11 37.5C6.30558 37.5 2.5 41.3056 2.5 46C2.5 50.6944 6.30558 54.5 11 54.5Z" fill="white" stroke="black"/>
<path d="M9 54.5C13.6944 54.5 17.5 50.6944 17.5 46C17.5 41.3056 13.6944 37.5 9 37.5C4.30558 37.5 0.5 41.3056 0.5 46C0.5 50.6944 4.30558 54.5 9 54.5Z" fill="white" stroke="black"/>
</g>
<defs>
<clipPath id="clip0_340_257">
<rect width="242" height="121" fill="white"/>
</clipPath>
</defs>
</svg>
