<svg width="862" height="487" viewBox="0 0 862 487" fill="none" xmlns="http://www.w3.org/2000/svg">
<path d="M757.068 345.841C720.275 354.493 713.699 372.106 715.01 379.831C681.363 375.299 674.205 402.319 674.832 416.396C666.702 423.138 632.853 447.755 693.034 475.496C768.26 510.172 751.426 453.647 787.842 471.844C816.975 486.401 830.149 451.691 833.74 442.708C833.74 442.708 833.615 435.687 843.827 423.138C853.745 410.95 860.07 420.048 861.951 394.813C863.456 374.625 829.978 362.712 805.452 374.166C804.654 361.12 793.86 337.189 757.068 345.841Z" fill="#E4E3E3"/>
<path d="M757.244 345.836C720.513 354.461 713.948 372.02 715.256 379.721C681.666 375.203 674.52 402.14 675.146 416.173C667.03 422.894 638.019 440.59 698.099 468.246C773.199 502.815 747.253 441.377 783.608 459.518C812.692 474.03 824.233 452.045 827.817 443.089C827.817 443.089 827.181 432.154 837.375 419.643C847.277 407.492 860.074 419.814 861.951 394.657C863.453 374.531 830.032 362.654 805.547 374.073C804.75 361.067 793.975 337.21 757.244 345.836Z" fill="#FDFDFD"/>
<path d="M655.473 1.2748C630.043 7.26461 625.498 19.4581 626.404 24.8062C603.148 21.6687 598.2 40.3749 598.634 50.1202C593.015 54.7877 569.619 71.8301 611.215 91.0355C663.209 115.042 651.574 75.9097 676.744 88.5073C696.88 98.5854 705.986 74.5556 708.467 68.3361C708.467 68.3361 708.381 63.4759 715.439 54.7877C722.294 46.3497 726.666 52.6485 727.966 35.1782C729.006 21.202 705.867 12.9541 688.915 20.8843C688.364 11.852 680.903 -4.715 655.473 1.2748Z" fill="#E4E3E3"/>
<path d="M655.557 1.2646C630.156 7.20649 625.616 19.3025 626.521 24.6077C603.292 21.4953 598.35 40.0519 598.783 49.7193C593.17 54.3494 573.108 66.5397 614.656 85.5915C666.59 109.406 648.648 67.082 673.789 79.5789C693.902 89.5763 701.882 74.4308 704.361 68.261C704.361 68.261 703.921 60.7282 710.971 52.1094C717.818 43.7389 726.668 52.2273 727.966 34.8968C729.005 21.0324 705.893 12.8505 688.96 20.7172C688.409 11.7572 680.958 -4.67729 655.557 1.2646Z" fill="#F7F7F7"/>
<path d="M67.0165 100.249C42.1275 106.118 37.6786 118.065 38.5653 123.305C15.8043 120.231 10.9622 138.559 11.3862 148.108C5.88684 152.681 -17.0113 169.379 23.6994 188.196C74.5877 211.718 63.1998 173.376 87.8344 185.719C107.542 195.594 116.454 172.049 118.883 165.956C118.883 165.956 118.798 161.194 125.706 152.681C132.415 144.413 136.695 150.585 137.967 133.468C138.985 119.774 116.338 111.692 99.7469 119.462C99.2072 110.613 91.9055 94.3802 67.0165 100.249Z" fill="#E4E3E3"/>
<path d="M67.1204 100.251C42.2678 106.129 37.8254 118.095 38.7108 123.343C15.9832 120.264 11.1481 138.621 11.5715 148.185C6.08021 152.765 -13.5491 164.824 27.102 183.671C77.9159 207.23 60.3603 165.361 84.9588 177.723C104.638 187.613 112.446 172.63 114.871 166.527C114.871 166.527 114.441 159.075 121.339 150.549C128.038 142.269 136.697 150.666 137.967 133.522C138.983 119.806 116.37 111.712 99.8029 119.494C99.264 110.631 91.973 94.373 67.1204 100.251Z" fill="#FDFDFD"/>
</svg>
