<svg width="180" height="180" viewBox="0 0 180 180" fill="none" xmlns="http://www.w3.org/2000/svg">
<path d="M87.1416 69.7093C73.8851 44.3988 103.5 55.5 90.1558 29.0195" stroke="#233647" stroke-width="7"/>
<path fill-rule="evenodd" clip-rule="evenodd" d="M82.238 125.516C77.5016 133.097 69.8278 138.832 60.4028 140.878C41.8725 144.901 23.5897 133.14 19.5671 114.61C15.6011 96.3402 26.9774 78.3113 45.0573 73.9523L45.0553 73.9434L45.8082 73.78C45.8173 73.778 45.8265 73.776 45.8356 73.774C45.8448 73.7721 45.8539 73.7701 45.863 73.7681L123.864 56.8355C142.394 52.8129 160.677 64.5737 164.699 83.104C168.722 101.634 156.961 119.917 138.431 123.94C129.006 125.986 119.645 123.948 112.192 119.014L82.238 125.516Z" fill="#99A5A6"/>
<path d="M87.3697 108.061C88.915 107.726 90.5359 108.711 90.8858 110.324C91.0025 110.861 90.7692 109.786 90.8858 110.324C91.2212 111.869 90.2363 113.49 88.6238 113.84C86.3394 114.336 82.3081 115.211 80.0237 115.706C78.4784 116.042 76.8576 115.056 76.5076 113.444C76.391 112.906 76.6243 113.981 76.5076 113.444C76.1723 111.898 77.1572 110.277 78.7697 109.927C81.0541 109.432 85.0853 108.557 87.3697 108.061Z" fill="#FFC79D"/>
<path d="M109.218 103.318C110.763 102.983 112.384 103.968 112.734 105.581C112.617 105.043 112.85 106.118 112.734 105.581C113.069 107.126 112.084 108.747 110.472 109.097C108.187 109.593 104.156 110.468 101.872 110.963C100.326 111.299 98.7055 110.314 98.3555 108.701C98.4722 109.239 98.2389 108.163 98.3555 108.701C98.0202 107.155 99.0051 105.534 100.618 105.184C102.969 104.674 106.933 103.814 109.218 103.318Z" fill="#EEC6FF"/>
<path d="M136.785 72.4145C137.581 76.082 135.259 79.6907 131.592 80.4867C127.924 81.2826 124.316 78.961 123.52 75.2935C122.724 71.6261 125.045 68.0173 128.713 67.2214C132.38 66.4254 136.006 68.8251 136.785 72.4145Z" fill="#E8B9FF"/>
<path d="M122.886 84.4188C126.02 86.435 126.935 90.6487 124.919 93.7826C122.903 96.9165 118.689 97.831 115.555 95.8148C112.421 93.7987 111.507 89.585 113.523 86.4511C115.539 83.3172 119.753 82.4027 122.886 84.4188Z" fill="#8BFFA6"/>
<path d="M142.561 99.0219C143.357 102.689 141.035 106.298 137.368 107.094C133.7 107.89 130.092 105.568 129.296 101.901C128.5 98.2335 130.821 94.6248 134.489 93.8288C138.156 93.0328 141.765 95.3545 142.561 99.0219Z" fill="#A2E2FF"/>
<path d="M153.024 82.8606C153.82 86.528 151.499 90.1367 147.831 90.9327C144.164 91.7287 140.555 89.407 139.759 85.7396C138.963 82.0721 141.285 78.4634 144.952 77.6674C148.541 76.8884 152.228 79.1931 153.024 82.8606Z" fill="#FFA2B1"/>
<rect x="43.1504" y="91.5151" width="9.58145" height="30.3412" rx="2" transform="rotate(-12.2479 43.1504 91.5151)" fill="#233647"/>
<rect x="64.8595" y="97.4241" width="9.58145" height="30.3412" rx="2" transform="rotate(77.7521 64.8595 97.4241)" fill="#233647"/>
</svg>
