<?xml version="1.0" encoding="utf-8"?>
<!-- Generator: Adobe Illustrator 25.4.1, SVG Export Plug-In . SVG Version: 6.00 Build 0)  -->
<svg version="1.1" xmlns="http://www.w3.org/2000/svg" xmlns:xlink="http://www.w3.org/1999/xlink" x="0px" y="0px"
	 viewBox="0 0 200 200" style="enable-background:new 0 0 200 200;" xml:space="preserve">
<style type="text/css">
	.st0{fill:#99A5A6;stroke:#000000;stroke-miterlimit:10;}
	.st1{enable-background:new    ;}
	.st2{font-family:'MyriadPro-Regular';}
	.st3{font-size:77.6065px;}
	.st4{fill:none;stroke:#233647;stroke-width:4.6228;stroke-miterlimit:18.4911;}
	.st5{fill:#FFC79D;stroke:#000000;stroke-miterlimit:10;}
	.st6{fill:#EEC6FF;stroke:#000000;stroke-miterlimit:10;}
	.st7{fill:#E8B9FF;stroke:#000000;stroke-miterlimit:10;}
	.st8{fill:#8BFFA6;stroke:#000000;stroke-miterlimit:10;}
	.st9{fill:#A2E2FF;stroke:#000000;stroke-miterlimit:10;}
	.st10{fill:#FFA2B1;stroke:#000000;stroke-miterlimit:10;}
	.st11{fill:#231C00;stroke:#000000;stroke-miterlimit:10;}
</style>
<g id="Layer_2">
	<g id="Layer_3">
		<g id="Layer_23">
			<g id="Layer_24">
				<g>
					<path id="ep202FxGE_00000162332823376848220150000008783234061710737065_" class="st0" d="M45.4,151.2l-4.2,0.8l-4.2,0.2
						l-4.2-0.3l-4.1-0.8l-4-1.3l-3.8-1.8l-3.6-2.3L14,143l-3-3.2L7.5,135l-2.7-5.2l-2-5.4l-1.3-5.6l-0.5-5.7l0.2-5.7l0.9-5.7
						l1.7-5.5l2.4-5.3l3.2-5.1l3.7-4.6l4.1-4.2l4.4-3.8l4.8-3.3l5-2.8l5.3-2.4l5.5-1.9l5.7-1.4l5.8-0.8l5.9-0.3h81.2l5.9,0.3
						l5.8,0.8l5.7,1.4l5.5,1.9L169,67l5,2.8l4.8,3.3l4.4,3.8l4.1,4.2l3.7,4.6l3.2,5.1l2.4,5.3l1.7,5.5l0.9,5.7l0.2,5.7l-0.5,5.7
						l-1.3,5.6l-2,5.4l-2.7,5.2l-3.5,4.9l-3,3.2l-3.3,2.7l-3.6,2.3l-3.8,1.8l-4,1.3l-4.1,0.8l-4.2,0.3l-4.2-0.2l-4.2-0.8l-4.1-1.3
						l-25-9.7H74.5l-25,9.7L45.4,151.2z"/>
				</g>
			</g>
		</g>
	</g>
</g>
<g id="Layer_21">
	<g id="Layer_22">
	</g>
</g>
<g id="Layer_18">
	<g id="Layer_19">
		<g>
			<g>
				<g class="st1">
					<text transform="matrix(0.9959 -9.078609e-02 9.078609e-02 0.9959 84.2719 82.5401)" class="st2 st3">S</text>
				</g>
				<g class="st1">
					<text transform="matrix(0.9959 -9.078609e-02 9.078609e-02 0.9959 84.2719 82.5401)" class="st4 st2 st3">S</text>
				</g>
			</g>
		</g>
	</g>
</g>
<g id="Layer_16">
	<g id="Layer_17">
		<g>
			<g>
				<path id="cSIhfY01q_00000126322402107149435100000015615715749745405835_" class="st5" d="M91.9,120.8c2.3,0,4.3,1.9,4.3,4.3
					c0,0.8,0-0.8,0,0c0,2.3-1.9,4.3-4.3,4.3c-3.4,0-9.4,0-12.8,0c-2.3,0-4.3-1.9-4.3-4.3c0-0.8,0,0.8,0,0c0-2.3,1.9-4.3,4.3-4.3
					C82.5,120.8,88.5,120.8,91.9,120.8z"/>
			</g>
		</g>
	</g>
</g>
<g id="Layer_14">
	<g id="Layer_15">
		<g>
			<g>
				<path id="bajSZbLOo_00000097497620283490892980000008512736744807638709_" class="st6" d="M121.6,120.8c2.3,0,4.3,1.9,4.3,4.3
					c0,0.8,0-0.8,0,0c0,2.3-1.9,4.3-4.3,4.3c-3.4,0-9.4,0-12.8,0c-2.3,0-4.3-1.9-4.3-4.3c0-0.8,0,0.8,0,0c0-2.3,1.9-4.3,4.3-4.3
					C112.3,120.8,118.2,120.8,121.6,120.8z"/>
			</g>
		</g>
	</g>
</g>
<g id="Layer_12">
	<g id="Layer_13">
		<g>
			<g>
				<path id="b14782axi7_00000139268397612537864560000016914475767889692080_" class="st7" d="M164.5,91c0,4.7-3.8,8.5-8.5,8.5
					c-4.7,0-8.5-3.8-8.5-8.5c0-4.7,3.8-8.5,8.5-8.5C160.7,82.5,164.5,86.4,164.5,91z"/>
			</g>
		</g>
	</g>
</g>
<g id="Layer_10">
	<g id="Layer_11">
		<g>
			<g>
				<path id="aofDyvdt9_00000052810237933495720390000011233354525168746136_" class="st8" d="M144.3,102c3.3,3.3,3.3,8.7,0,12
					c-3.3,3.3-8.7,3.3-12,0c-3.3-3.3-3.3-8.7,0-12C135.6,98.7,141,98.7,144.3,102z"/>
			</g>
		</g>
	</g>
</g>
<g id="Layer_8">
	<g id="Layer_9">
		<g>
			<g>
				<path id="am98haakQ_00000070823181812031574200000010920440112411426236_" class="st9" d="M164.5,125.1c0,4.7-3.8,8.5-8.5,8.5
					c-4.7,0-8.5-3.8-8.5-8.5c0-4.7,3.8-8.5,8.5-8.5C160.7,116.6,164.5,120.4,164.5,125.1z"/>
			</g>
		</g>
	</g>
</g>
<g id="Layer_6">
	<g id="Layer_7">
		<g>
			<g>
				<path id="a2CRuPMBUt_00000033341180767181783300000014244816991481222796_" class="st10" d="M181.6,108.1c0,4.7-3.8,8.5-8.5,8.5
					c-4.7,0-8.5-3.8-8.5-8.5c0-4.7,3.8-8.5,8.5-8.5C177.7,99.6,181.6,103.4,181.6,108.1z"/>
			</g>
		</g>
	</g>
</g>
<g id="Layer_4">
	<g id="Layer_5">
		<g>
			<g>
				<path id="c6HjMnKwHt" class="st11" d="M46.8,108.6l1.9,14.6l-8.4,1.1h-0.2l-0.2,0l-0.2-0.1l-0.2-0.1l-0.2-0.1l-0.2-0.2l-0.1-0.2
					l-0.1-0.2l-0.1-0.2l0-0.3l-1.7-13l-13,1.7l-1.3-9.8l13-1.7l-1.9-14.6l9.8-1.3l1.9,14.6l13-1.7l1.3,9.8l0,0L46.8,108.6z"/>
			</g>
		</g>
	</g>
</g>
<g id="Layer_1">
</g>
</svg>
