<?xml version="1.0" encoding="UTF-8"?> <svg xmlns="http://www.w3.org/2000/svg" xmlns:xlink="http://www.w3.org/1999/xlink" version="1.1" id="Lager_1" x="0" y="0" viewBox="0 0 595.3 596.1" xml:space="preserve"><style>.st2{fill:#ffd4b3}</style><path d="M456.7 226.9c-3.6-5.4-13.3-3.5-30.9-2.8-7.7.3-16.6.4-24.1.3 2.3-10.1 2.8-22.4.2-37.5-6.5-36.8-30-45.3-17.7-59.9 2.4-2.8 3.3-2 10.5-6.5 7.3-4.5 5.9-8.2 11.2-11.5 5.3-3.3 11.6-3.2 12.2-4.6.6-1.4.2-5.3.2-5.3s3.2-2.3 2.8-8.7c-.2-3.5-3.4-5.8-14.9-5.6-10.3.2-43.2-2.5-58.6 2.7-10.1-7.6-26-15.3-46.9-12.5-36.9 5-45 2.7-52.1-3.9-7.1-6.6-11.3-4.9-8.9 1.3 2.2 5.9 13.9 18.6 46.5 15.6 25.5-2.4 39.9 6.1 47.5 13.4-.3.7-.6 1.4-.9 2.2-3.1-1-10.3-2.7-17.5-.1-9.6 3.4-17.4 7.6-17.4 7.6s10.9 7.5 20.9 8.1c3.9.2 7.8-.4 11.2-1.2-.4 8.4.9 17.1 3.9 24.3 7.1 17.2 4.2 35.9-1.3 43.8s-23.8 20.8-54.7 18.2c-30.8-2.6-50.5 1.3-70.6 12.7-4.9 2.8-9.5 7.3-13.1 13-2.6.9-5.1 1.9-7.1 3-7.6 4.1-13.7 9.8-13.2 13.9s4.6 3.6 10 1.2c1-.4 2.1-.8 3.3-1.2-1.1 5-1.6 10.3-1.3 15.9.3 6-.1 26.9-1.4 30-2.2 5-8 9.3-13.5 10.3-5.4.9-8.9 0-13.1 5.3-4.2 5.3-14.4 38.5-18.3 42.2-2.1 2-2 4-1.8 5.5-.4.8-.9 1.4-1.8 1.9-3.5 1.8-6.4-2-6.4-2l-9.2 1.2s-7.5 20.9-8.3 23.1c-.6 1.7 1.3 1.9 3.1 1.4 15.9-4.2 36.5-15.1 42.1-23 2.9-4.1 5.3-26.2 10-31.1 2.4-2.5 7.2-5.3 12.8-7.8 4.4-1.5 10.2-2.9 14.4-4 10.5-2.7 21.5-6 27.7-9.9 3-1.5 6.2-4.2 9.1-9.4 3.2-5.7 4.9-10.6 8.2-16.4 4.5-7.8 9.9-12.5 15.8-14.6 12-4.1 15.8.7 33 5.2 38 9.8 67.8 3.1 88-10.2 4.2.3 8.4-.1 12.5-1.4 23-7.6 38.7-13.4 38.7-13.4s-16.9 20.7-21.6 24.2c-3.6 2.7-2.8 5.3-5.3 6.6-3.5 1.8-6.4-2-6.4-2l-9.2 1.2s-7.5 20.9-8.3 23.1c-.6 1.7 1.3 1.9 3.1 1.4 9.3-2.4 22.6-7.5 33-15 5.3-3.2 12.5-10 14.4-12 4.6-4.9 22.7-22.8 27.7-28.3 4.9-5.6 5.4-12.5 1.8-18z"></path><path d="M323.1 282.8c-11.7 0-24.1-1.7-36.7-4.9-5.4-1.4-9.6-2.9-13-4-4.3-1.5-7.1-2.5-9.8-2.5-1.7 0-3.5.4-5.8 1.2-4.4 1.5-8.4 5.3-11.7 11.2-1.6 2.7-2.8 5.3-4 8-1.2 2.6-2.5 5.3-4.1 8.3-3.2 5.8-7.1 9.8-11.9 12.3-3 1.9-7.1 3.7-12.2 5.6v120.2h153.6V273.8c-13.5 5.9-28.5 9-44.4 9z" fill="#db4335"></path><path d="M184.1 506.9v21.3h-1.7l-2.4-3.9c-4.9 2.5-10.4 4.9-14.8 4.9-17.7 0-25.1-16-25.1-32.1 0-15.3 8.1-32.1 25.9-32.1 8.2 0 14.4 2.8 17 4.1v14.5h-1.9l-3.2-7.9c-3.5-5.1-5.5-7.1-12.3-7.8-7.8 0-12.1 4.8-14.4 12.8-1.2 4.1-2.1 10.1-2.1 16.4 0 8.6 1.3 13.6 2.1 16.3 2 7.9 6.2 12.8 14.4 12.8 4.1 0 8.9-2.6 10.5-5.8v-13.5l-7-2.1V503h21.2v1.8l-6.2 2.1zM223.6 527.9v-1.8l6.8-2-5.2-16.3h-20.1l-5.2 16 6.8 2.3v1.8h-16.2v-1.8l6.4-2.6 19.3-57.7h3l19.3 57.9 6.5 2.3v1.8l-21.4.1zm-8.7-50.3l-8.8 27.3h18.1l-9.3-27.3zM268.6 529.2c-8.3 0-15.4-2.1-18.2-3.4v-15.6h2l3.2 8.9c3.5 5.1 7.2 6.8 13.1 7.3 7.8 0 14.1-4.7 14.1-12.5 0-6-3-8.6-7.3-10.9-3.7-2.1-10.1-3.6-15.3-6.3-4.7-2.5-9.1-7.2-9.1-14.2 0-10.2 8.7-17.7 19.4-17.7 6.4 0 13 2.3 15.8 3.7v14.6h-1.9l-3.2-7.9c-2.2-3.9-4-6.8-10.8-7.6-6.3 0-12.5 3.5-12.5 10.9 0 6.1 2.4 8.9 7.7 11.4 3.4 1.6 9.4 3.3 13.8 5.5 5.4 2.8 10.2 7 10.2 14.8 0 10.7-8.3 19-21 19zM295.7 526.1l7-2V470l-7-2v-1.8h42.8l.6 16.9h-1.9c-2.2-5.6-4.8-10.4-8.5-14.2h-18v25.4h9.1c3.2-2.1 5.8-6.2 6.6-11.3h2v25.5h-2c-.8-5.1-3.4-9.3-6.6-11.3h-9.1v28h19.4c4-4.5 7.5-11.6 9.4-17h1.8l-1.5 19.8h-44.2v-1.9h.1zM391 527.9h-42.5v-1.8l7-2V470l-7-2v-1.8h22.4v1.8l-7.3 2v55.2h17.6c4-4.5 7.6-11.6 9.4-17h1.8l-1.4 19.7zM439.4 527.9h-42.5v-1.8l7-2V470l-7-2v-1.8h22.4v1.8l-7.3 2v55.2h17.6c4-4.5 7.6-11.6 9.4-17h1.8l-1.4 19.7z"></path><g><path fill="none" d="M225.2 299.3h130.6v123.8H225.2z"></path><image width="458" height="425" transform="translate(238.7689 312.6255) scale(.2381)" overflow="visible" opacity=".75"></image><path class="st2" d="M249.7 333.7h-5.3v-13.1h32.8c7.7 0 14.2 2.1 18.3 5.8 6.7 6 10.2 18 10.2 34.9 0 20.5-4.8 33.2-14.2 37.7-4.2 2-11.9 3.3-19.4 3.3h-27.7v-13.1h5.3v-55.5zm22.6 55.5c9.2 0 11-5 11-30.5 0-13-1-19.8-3.3-22.5-1.5-2-3.9-2.6-9.8-2.5v55.5h2.1zM333 389.2h3.3v13.1h-26.6v-13.1h3.3v-33.6h-3.3v-13H333v46.6zm1.3-61.2c0 6-4.7 9.7-12.1 9.7-7.5 0-12.2-3.7-12.2-9.6 0-6 4.7-9.7 12.4-9.7 7.2.1 11.9 3.9 11.9 9.6z"></path></g></svg> 