<svg width="1261" height="601" viewBox="0 0 1261 601" fill="none" xmlns="http://www.w3.org/2000/svg">
<path fill-rule="evenodd" clip-rule="evenodd" d="M1142.4 218.709C1125.13 213.182 1108.88 224.737 1106.15 238.885C1104.8 245.828 1105.94 252.346 1109.26 257.531C1112.58 262.723 1117.99 266.43 1124.92 267.906C1129.92 268.971 1137.13 268.51 1143.55 265.726C1150.04 262.916 1155.92 257.642 1157.74 249.011C1159.48 240.78 1158.42 234.046 1155.44 228.897C1152.46 223.759 1147.7 220.405 1142.4 218.709ZM1122.84 242.113C1123.25 239.986 1124.95 237.566 1127.61 235.973C1130.21 234.414 1133.58 233.737 1137.22 234.9C1139.12 235.509 1140.16 236.483 1140.75 237.453L1140.81 237.554C1141.46 238.624 1141.83 239.235 1141.99 240.121C1142.16 241.029 1142.12 242.431 1141.34 244.955C1140.67 247.14 1139.37 249.014 1136.8 250.127C1133.56 251.528 1129.95 251.596 1128.46 251.279C1125.58 250.664 1124.23 249.397 1123.58 248.369C1122.89 247.289 1122.22 245.307 1122.84 242.113Z" fill="#FCAFC0"/>
<path fill-rule="evenodd" clip-rule="evenodd" d="M1119.34 135.699C1107.69 129.092 1095.05 130.078 1084.61 134.935C1074.24 139.76 1065.71 148.541 1062.13 158.109C1058.66 167.364 1058.14 176.389 1060.84 184.636C1063.53 192.884 1069.35 200.05 1078 205.767L1078.16 205.872L1078.33 205.955C1092.42 212.896 1107.11 210.842 1118.44 205.379C1124.11 202.646 1129.02 199.023 1132.7 195.124C1136.28 191.321 1138.9 187.032 1139.62 182.86C1145.04 162.383 1133.77 143.887 1119.34 135.699ZM1093.47 153.976C1098.89 151.452 1105.53 151.848 1110.27 154.538C1115.3 157.389 1118.29 160.336 1119.72 163.782C1121.15 167.219 1121.27 171.693 1119.38 178.076C1119.13 178.916 1118.05 180.445 1116.01 182.265C1114.08 183.983 1111.67 185.615 1109.41 186.745C1102.82 190.041 1096.7 190.758 1088.67 187.756C1085.91 185.8 1084.43 184.051 1083.49 182.491C1082.65 181.093 1082.19 179.8 1081.65 178.246L1081.65 178.245C1081.53 177.91 1081.4 177.562 1081.27 177.199C1080.17 174.148 1079.91 170.501 1081.79 165.476C1083.2 161.706 1087.43 156.783 1093.47 153.976Z" fill="#FCAFC0"/>
<path fill-rule="evenodd" clip-rule="evenodd" d="M1159.65 98.9975C1165.61 100.928 1169.16 105.946 1170.87 110.387C1172.76 115.166 1173.13 120.446 1171.61 125.414C1169.76 131.412 1166.21 136.677 1160.46 139.567C1154.77 142.426 1148.34 142.249 1142.13 140.327C1136.32 138.527 1131.87 134.391 1129.65 128.924C1127.25 123.004 1127.74 116.648 1130.07 110.925L1130.09 110.869L1130.12 110.816C1132.57 105.938 1136.32 102.476 1140.94 100.098L1140.95 100.09L1140.96 100.083C1146.46 97.4009 1152.85 96.8909 1159.63 98.9919L1159.64 98.9947L1159.65 98.9975ZM1154.76 114.232C1154.75 114.23 1154.75 114.23 1154.76 114.233C1154.78 114.245 1154.96 114.332 1155.25 114.665C1155.57 115.029 1155.95 115.616 1156.36 116.508C1156.83 117.749 1156.63 118.917 1156.4 120.238L1156.4 120.239C1156.36 120.479 1156.32 120.725 1156.28 120.977C1155.36 123.91 1154.14 124.838 1153.28 125.27C1152.44 125.69 1150.54 125.949 1146.83 125.032C1145.62 124.645 1144.88 123.909 1144.48 122.908C1144.06 121.886 1143.83 120.121 1144.64 117.658C1145.1 116.266 1146.58 115.187 1148.26 114.322C1149.46 113.704 1152.07 113.44 1154.76 114.232Z" fill="#FCAFC0"/>
<path fill-rule="evenodd" clip-rule="evenodd" d="M1098.7 341.183C1108.88 333.459 1114.83 324.18 1117.33 314.298C1119.82 304.45 1118.82 294.212 1115.44 284.589C1108.7 265.429 1092.34 248.245 1073.78 240.47C1054.12 232.23 1011.77 220.295 973.229 256.785C954.874 274.163 941.926 301.49 939.237 329.256C936.543 357.072 944.128 385.744 967.427 405.28C988.793 423.194 1040.68 437.646 1095.41 412.513L1095.74 412.361L1096.03 412.132C1099.13 409.654 1099.91 405.322 1099.84 401.462C1099.76 397.395 1098.75 392.81 1097.19 388.639C1095.63 384.489 1093.43 380.478 1090.79 377.698C1088.23 375.002 1084.46 372.735 1080.28 374.384L1080.01 374.491L1079.76 374.649C1073.02 378.966 1062.46 382.191 1050.61 383.412C1038.8 384.629 1026.04 383.821 1015 380.363C1003.95 376.903 994.907 370.889 989.983 361.89C985.488 353.675 984.158 342.479 988.578 327.46C1000.91 336.815 1019.95 345.162 1039.41 349.122C1060.72 353.457 1083.5 352.729 1098.7 341.183ZM1035.54 273.194C1054.82 273.56 1065.79 280.077 1071.58 287.399C1077.47 294.848 1078.25 303.397 1076.75 308.328C1076.4 309.475 1075.79 310.331 1074.85 311.004C1073.85 311.712 1072.35 312.312 1070.12 312.64C1065.6 313.307 1058.82 312.759 1049.24 310.734C1039.68 308.714 1026.23 305.006 1016.02 300.338C1010.87 297.983 1006.84 295.513 1004.5 293.093C1003.35 291.9 1002.75 290.872 1002.53 290.034C1002.32 289.279 1002.37 288.52 1002.83 287.622C1004.33 284.69 1008.6 280.967 1014.81 277.971C1020.89 275.034 1028.32 273.056 1035.54 273.194Z" fill="#FCAFC0"/>
<path d="M893.024 242.918C892.21 249.052 891.537 253.67 890.981 257.148C895.138 251.798 900.29 246.41 906.064 241.759C914.794 234.726 925.122 229.234 935.729 228.283C941.614 227.755 946.056 230.304 949.021 234.315C951.919 238.237 953.4 243.52 953.747 248.719C954.094 253.927 953.322 259.3 951.46 263.503C949.62 267.657 946.467 271.136 941.873 271.397C929.966 272.074 919.868 277.651 911.964 284.634C904.053 291.624 898.458 299.923 895.594 305.769C895.422 306.119 895.243 306.47 895.063 306.823L895.062 306.824C893.962 308.976 892.812 311.224 893.035 314.093C894.269 329.995 897.11 390.367 896.874 404.41C896.807 408.374 895.455 411.506 893.225 413.911C891.037 416.272 888.106 417.827 885.019 418.889C879.488 420.792 872.931 421.271 868.042 421.629L868.029 421.63C867.516 421.667 867.02 421.703 866.547 421.74C861.012 422.165 855.203 420.69 850.469 417.777C845.731 414.862 841.928 410.412 840.693 404.806C840.099 402.108 839.801 397.279 839.639 391.169C839.476 384.992 839.449 377.307 839.445 368.779C839.445 366.965 839.445 365.112 839.446 363.227L839.446 363.225C839.449 347.362 839.453 329.197 838.821 312.353C838.462 302.808 837.668 292.473 836.892 282.373C836.487 277.093 836.086 271.877 835.755 266.872C835.275 259.614 834.944 252.81 834.97 246.976C834.997 241.185 835.374 236.178 836.389 232.598L836.41 232.525L836.437 232.453C838.681 226.364 843.721 222.3 849.678 220.018C855.626 217.74 862.642 217.169 869.237 218.136C875.823 219.101 882.182 221.63 886.713 225.757C891.308 229.942 893.974 235.746 893.024 242.918Z" fill="#FCAFC0"/>
<path fill-rule="evenodd" clip-rule="evenodd" d="M785.354 229.261C779.879 223.831 772.486 217.861 761.542 213.485C750.634 209.122 736.409 206.426 717.34 207.211C698.372 207.219 672.931 210.073 646.857 230.506L646.689 230.637L646.536 230.786C642.639 234.574 641.201 239.79 641.002 244.781C640.803 249.798 641.824 255.052 643.352 259.588C644.867 264.082 647.006 268.248 649.331 270.97C650.436 272.263 651.969 273.693 653.898 274.293C654.951 274.621 656.211 274.724 657.512 274.305C658.633 273.943 659.517 273.279 660.185 272.517C674.74 259.725 696.892 252.68 716.965 252.125C727.016 251.847 736.29 253.206 743.627 256.098C750.971 258.993 756.044 263.275 758.419 268.671C762.522 277.995 765.138 288.171 764.285 298.837C754.658 291.987 739.038 288.473 713.172 291.319C697.094 293.088 685.383 296.544 676.107 301.578C666.799 306.629 660.203 313.131 654.192 320.573C642.455 335.104 640.513 350.376 639.362 359.428L639.348 359.538C639.286 360.027 639.227 360.492 639.169 360.939L639.153 361.061L639.144 361.183C638.838 365.667 638.282 377.257 642.681 389.249C647.154 401.442 656.721 413.924 676.193 419.803C694.99 425.477 713.866 425.495 729.046 423.273C736.645 422.16 743.379 420.478 748.782 418.623C754.072 416.807 758.425 414.711 760.997 412.608C765.238 409.141 768.884 404.71 771.486 401.14L771.558 401.322C772.951 404.806 774.75 408.947 775.973 410.819C776.926 412.276 778.645 413.664 780.386 414.798C782.264 416.02 784.644 417.251 787.35 418.25C792.72 420.23 799.757 421.429 806.87 419.375C813.687 417.407 818.311 413.932 820.942 409.161C823.502 404.518 823.853 399.219 823.366 394.185C823.216 392.624 823 391.392 822.618 390.239C822.257 389.151 821.788 388.274 821.385 387.521L821.28 387.324C819.523 384.037 815.283 376.11 805.424 330.215C810.263 308.28 809.383 287.301 805.316 269.78C801.217 252.12 793.794 237.63 785.354 229.261ZM723.086 376.436L723.086 376.436L723.084 376.436L723.064 376.44C723.045 376.444 723.013 376.449 722.969 376.457C722.918 376.467 722.85 376.479 722.766 376.494C722.738 376.498 722.709 376.503 722.679 376.509C722.645 376.515 722.608 376.521 722.57 376.528C722.212 376.589 721.68 376.677 720.998 376.778C719.635 376.981 717.683 377.239 715.36 377.452C710.682 377.88 704.643 378.113 698.911 377.415C693.062 376.703 688.171 375.095 685.178 372.372C682.52 369.954 680.795 366.141 682.349 359.262C683.271 355.183 684.883 349.803 689.533 344.916C694.159 340.056 702.204 335.262 716.781 333.236C723.727 332.271 732.365 332.915 739.595 335.564C746.676 338.158 751.689 342.366 753.313 348.129C753.207 357.494 752.157 361.764 750.665 364.191C749.23 366.526 747.12 367.678 742.363 370.01L742.351 370.016L742.348 370.018C741.754 370.309 741.126 370.617 740.473 370.943C735.574 373.388 731.254 374.755 728.19 375.507C726.659 375.883 725.446 376.104 724.636 376.23C724.231 376.293 723.928 376.332 723.737 376.354C723.642 376.365 723.574 376.372 723.536 376.376C723.519 376.377 723.507 376.378 723.503 376.379C723.502 376.379 723.502 376.379 723.502 376.379L723.501 376.379L723.297 376.396L723.086 376.436Z" fill="#FCAFC0"/>
<path d="M549.28 107.973C536.269 106.53 524.411 112.43 515.833 120.611C507.31 128.74 501.408 139.702 500.78 149.444C500.224 158.052 502.549 165.825 507.758 171.383C512.993 176.97 520.693 179.84 529.906 179.478C542.7 178.974 553.749 172.602 561.467 164.607C569.077 156.723 574.037 146.622 573.709 138.023C573.416 130.334 571.398 123.285 567.299 117.866C563.134 112.358 557.036 108.832 549.28 107.973Z" fill="#FCAFC0"/>
<path d="M586.553 217.615C583.134 212.539 577.481 210.237 571.769 209.649C566.039 209.059 559.756 210.116 554.138 212.271C548.539 214.419 543.237 217.799 539.708 222.199C536.102 226.694 534.247 232.448 536.289 238.682C541.438 254.403 544.992 266.895 552.343 292.732L552.353 292.768C553.68 297.432 555.13 302.529 556.736 308.159C567.038 344.279 566.531 368.657 560.328 399.673C559.249 405.065 554.954 413.21 546.346 422.119C537.816 430.947 525.267 440.293 508.138 448.158C473.781 463.935 446.265 463.478 427.706 454.96C421.895 452.293 416.549 452.38 412.123 454.854C407.9 457.215 405.168 461.389 403.556 465.622C401.927 469.898 401.258 474.685 401.487 478.943C401.705 483.001 402.793 487.47 405.603 490.266C413.757 498.376 443.707 513.917 494.665 504.282C545.404 494.688 595.16 466.729 615.735 418.291C620.662 406.692 623.194 391.278 623.834 374.19C624.477 357.042 623.224 337.936 620.397 318.791C614.762 280.629 602.779 241.698 586.553 217.615Z" fill="#FCAFC0"/>
<path fill-rule="evenodd" clip-rule="evenodd" d="M516.109 271.895C516.109 260.382 507.413 245.716 492.919 235.105C478.245 224.363 457.229 217.43 431.795 221.695C406.693 225.903 390.364 234.919 379.992 243.412C370.814 250.928 366.366 258.007 364.793 260.51C364.59 260.833 364.435 261.08 364.324 261.242C364.215 261.401 364.072 261.6 363.901 261.839L363.901 261.839C362.453 263.863 358.924 268.794 355.654 277.145C352.003 286.467 348.689 299.984 348.689 318.607C348.689 337.371 353.875 357.291 361.239 373.955C368.552 390.503 378.258 404.387 387.696 410.595C396.486 416.376 404.383 420.978 414.851 423.53C425.283 426.074 438.035 426.529 456.551 424.469C475.387 422.373 495.603 414.796 511.723 405.37C519.794 400.651 526.924 395.42 532.382 390.096C537.785 384.827 541.801 379.224 543.202 373.726C543.826 371.279 543.838 369.206 543.471 367.389C543.11 365.604 542.41 364.219 541.873 363.212C541.875 363.214 541.871 363.207 541.86 363.185C541.849 363.163 541.835 363.134 541.817 363.096C541.793 363.047 541.766 362.989 541.734 362.921C541.717 362.883 541.697 362.841 541.677 362.796C541.613 362.659 541.548 362.515 541.474 362.352C541.44 362.278 541.404 362.199 541.366 362.115C541.327 362.029 541.285 361.938 541.24 361.839C540.887 361.069 540.419 360.064 539.85 358.924C538.716 356.655 537.152 353.796 535.222 351.112C533.318 348.462 530.914 345.777 528.039 344.071C525.058 342.302 521.47 341.547 517.64 343.076C515.96 343.747 513.962 344.916 511.81 346.302C509.623 347.712 507.106 349.46 504.362 351.379C504.234 351.468 504.106 351.558 503.977 351.648C503.723 351.826 503.467 352.005 503.209 352.186C497.941 355.874 491.817 360.16 485.165 364.235C470.731 373.075 454.525 380.446 440.052 378.878L439.981 378.871L439.91 378.866C426.755 378.072 410.231 369.975 404.333 355.045C402.624 350.718 401.867 347.805 401.54 345.974C401.971 345.97 402.442 345.963 402.95 345.953C405.891 345.895 410.088 345.732 415.142 345.313C425.235 344.477 438.813 342.616 452.656 338.5C466.408 334.411 475.295 330.455 481.937 326.543C487.405 323.322 491.315 320.142 494.991 317.151L494.991 317.151C495.763 316.523 496.525 315.904 497.289 315.294C506.965 307.567 516.109 295.01 516.109 271.895ZM428.839 269.366C432.868 267.412 444.448 263.07 455.107 262.814C460.426 262.687 465.134 263.588 468.571 265.924C471.861 268.159 474.402 271.992 474.924 278.726C475.183 282.075 472.827 285.829 467.205 289.549C461.733 293.169 453.949 296.193 445.407 298.201L445.078 298.279C436.306 300.341 424.765 303.054 415.388 303.92C410.593 304.363 406.715 304.283 404.151 303.58C402.89 303.234 402.193 302.803 401.836 302.438C401.553 302.15 401.361 301.792 401.361 301.122C401.361 294.082 405.81 287.236 411.85 281.389C417.817 275.613 424.834 271.308 428.839 269.366Z" fill="#FCAFC0"/>
<path d="M181.028 425.972L181.596 422.519C181.028 425.972 181.03 425.973 181.031 425.973L181.035 425.973L181.043 425.975L181.069 425.979C181.089 425.982 181.116 425.986 181.149 425.991C181.216 426.001 181.308 426.015 181.424 426.031C181.657 426.063 181.987 426.106 182.401 426.151C183.23 426.242 184.402 426.345 185.819 426.399C188.637 426.507 192.5 426.428 196.581 425.643C204.717 424.079 214.442 419.498 217.441 407.358C218.824 401.762 219.133 394.283 219.004 386.296C218.881 378.694 218.35 370.333 217.836 362.241C217.806 361.764 217.776 361.288 217.746 360.813C217.202 352.227 216.707 344.036 216.733 337.218C216.746 333.813 216.888 330.831 217.202 328.366C217.523 325.849 217.993 324.123 218.518 323.077C221.259 317.616 229.563 309.154 239.701 303.706C249.876 298.239 260.506 296.505 268.618 302.06C270.412 303.289 272.022 305.389 273.375 308.524C274.724 311.65 275.724 315.596 276.42 320.213C277.812 329.455 277.908 340.843 277.521 352.567C277.287 359.646 276.887 366.668 276.506 373.362V373.363L276.506 373.364C276.252 377.822 276.007 382.136 275.824 386.225C275.598 391.27 275.473 395.926 275.568 399.902C275.662 403.812 275.971 407.335 276.731 409.984L276.953 410.755L277.487 411.353C286.779 421.737 298.036 424.72 308.022 422.565C317.835 420.447 326.151 413.413 329.838 404.336L329.987 403.969L330.051 403.578C341.167 334.86 328.234 291.722 320.352 271.735C312.883 252.796 299.341 243.686 283.891 240.961C268.7 238.282 251.886 241.791 237.335 247.407C227.35 251.261 220.303 255.285 215.501 258.864C215.331 258.991 215.164 259.117 214.999 259.243C215.39 255.436 215.776 251.041 216.122 246.442C216.925 235.794 217.544 223.718 217.544 214.603C217.544 201.736 216.801 185.677 214.211 169.823C211.63 154.02 207.171 138.147 199.574 125.835C195.531 119.281 190.237 115.426 184.444 113.85C178.717 112.291 172.824 113.045 167.62 115.106C162.422 117.164 157.741 120.588 154.33 124.648C150.945 128.677 148.596 133.603 148.596 138.672C148.596 142.231 149.132 146.767 149.922 152.815C150.074 153.981 150.237 155.21 150.409 156.508L150.409 156.508C151.14 162.026 152.035 168.787 152.993 177.248C155.357 198.131 158.1 229.373 159.597 277.282C162.002 354.213 160.551 381.313 159.88 393.848C159.714 396.953 159.596 399.165 159.596 401.019C159.596 405.52 159.794 410.742 162.863 415.386C165.98 420.101 171.57 423.555 180.724 425.908L180.875 425.947L181.028 425.972Z" fill="#FCAFC0"/>
</svg>
