<?xml version="1.0" encoding="utf-8"?>
<!-- Generator: Adobe Illustrator 25.4.1, SVG Export Plug-In . SVG Version: 6.00 Build 0)  -->
<svg version="1.1" xmlns="http://www.w3.org/2000/svg" xmlns:xlink="http://www.w3.org/1999/xlink" x="0px" y="0px"
	 viewBox="0 0 200 200" style="enable-background:new 0 0 200 200;" xml:space="preserve">
<style type="text/css">
	.st0{fill:#FFFFFF;stroke:#000000;stroke-miterlimit:10;}
	.st1{fill:#CEFDFF;stroke:#000000;stroke-miterlimit:10;}
	.st2{fill:#233647;}
	.st3{font-family:'MyriadPro-Regular';}
	.st4{font-size:89.0296px;}
	.st5{enable-background:new    ;}
	.st6{fill:none;stroke:#233647;stroke-width:5;}
</style>
<g id="Layer_6">
	<g>
		<g>
			<g>
				<path id="g3BTyV9w5X" class="st0" d="M5,128.6L5,128.6c6.9-17.7,28.7-24.1,44.1-13c4.3,3.1,15.1,10.9,32.4,23.3"/>
			</g>
		</g>
	</g>
	<g>
		<g>
			<g>
				<path id="g3BTyV9w5X_00000130612271241189858880000003034985908555642287_" class="st0" d="M85.8,115.1L85.8,115.1
					c5.3-19.1,33.7-19.8,57.6-1.3c6.7,5.2,23.4,18.2,50,38.9"/>
			</g>
		</g>
	</g>
</g>
<g id="Layer_7">
	<g>
		<g>
			<g>
				<path id="brMHrDKKG_00000024719774123907628180000005251134942878886020_" class="st0" d="M137.7,152.6l-23.2,0.5"/>
			</g>
		</g>
	</g>
</g>
<g id="Layer_9">
	<g>
		<g>
			<path id="b10L0kvKEi" class="st1" d="M115.6,152.2c0,16.2-13.1,29.3-29.3,29.3c-16.2,0-29.3-13.1-29.3-29.3s13.1-29.3,29.3-29.3
				C102.5,122.9,115.6,136,115.6,152.2z"/>
		</g>
		<g>
			<g>
				<path id="b10L0kvKEi_00000131333838154946081130000001056633363835835054_" class="st1" d="M115.6,152.2
					c0,16.2-13.1,29.3-29.3,29.3c-16.2,0-29.3-13.1-29.3-29.3s13.1-29.3,29.3-29.3C102.5,122.9,115.6,136,115.6,152.2z"/>
			</g>
		</g>
	</g>
</g>
<g id="Layer_8">
	<g>
		<g>
			<path id="f1wpeOEWjF_00000073701339101462961990000016162838979751839133_" class="st1" d="M193.5,152.1
				c0,16.2-13.1,29.3-29.3,29.3c-16.2,0-29.3-13.1-29.3-29.3s13.1-29.3,29.3-29.3C180.4,122.8,193.5,135.9,193.5,152.1z"/>
		</g>
		<g>
			<g>
				<path id="f1wpeOEWjF_00000055673755448146459750000002544430415267143569_" class="st1" d="M193.5,152.1
					c0,16.2-13.1,29.3-29.3,29.3c-16.2,0-29.3-13.1-29.3-29.3s13.1-29.3,29.3-29.3C180.4,122.8,193.5,135.9,193.5,152.1z"/>
			</g>
		</g>
	</g>
</g>
<g id="Layer_5">
	<g id="aO2SMYqyq">
		<g>
			<text transform="matrix(0.9959 -9.078609e-02 9.078609e-02 0.9959 70.8882 81.8106)" class="st2 st3 st4">M</text>
		</g>
		<g>
			<g>
				<g class="st5">
					<text transform="matrix(0.9959 -9.078609e-02 9.078609e-02 0.9959 70.8882 81.8106)" class="st3 st4">M</text>
				</g>
				<g class="st5">
					<text transform="matrix(0.9959 -9.078609e-02 9.078609e-02 0.9959 70.8882 81.8106)" class="st6 st3 st4">M</text>
				</g>
			</g>
		</g>
	</g>
</g>
<g id="Layer_10">
	<path d="M72.9,156.9c0,0.5,0.5,1,1.1,1s1.1-0.4,1.1-1v-7.8c0-0.4-0.3-0.8-0.7-0.9c-0.4-0.2-0.9-0.1-1.2,0.2l-2.8,2.5
		c-0.4,0.4-0.4,1,0,1.4c0.4,0.4,1.1,0.4,1.5,0l0.9-0.8V156.9z"/>
	<path d="M78.1,140.4l0.9-0.8v5.4c0,0.5,0.5,1,1.1,1s1.1-0.4,1.1-1v-7.8c0-0.4-0.3-0.8-0.7-0.9c-0.4-0.2-0.9-0.1-1.2,0.2l-2.8,2.5
		c-0.4,0.4-0.4,1,0,1.4C77,140.8,77.7,140.8,78.1,140.4z"/>
	<path d="M85.5,160.4c-0.4-0.2-0.9-0.1-1.2,0.2l-2.8,2.5c-0.4,0.4-0.4,1,0,1.4c0.4,0.4,1.1,0.4,1.5,0l0.9-0.8v2.9c0,0.5,0.5,1,1.1,1
		s1.1-0.4,1.1-1v-5.3C86.1,160.9,85.9,160.6,85.5,160.4z"/>
	<path d="M92.6,148.1L92.6,148.1c-2.1,0-3.8,1.5-3.8,3.4v2.9c0,1.9,1.7,3.4,3.8,3.4h0.1c2.1,0,3.8-1.5,3.8-3.4v-2.9
		C96.4,149.6,94.7,148.1,92.6,148.1z M94.2,154.4c0,0.8-0.7,1.4-1.6,1.4h-0.1c-0.9,0-1.6-0.6-1.6-1.4v-2.9c0-0.8,0.7-1.4,1.6-1.4
		h0.1c0.9,0,1.6,0.6,1.6,1.4V154.4z"/>
	<path d="M82.4,148.2L82.4,148.2c-2.1,0-3.8,1.5-3.8,3.4v2.9c0,1.9,1.7,3.4,3.8,3.4h0.1c2.1,0,3.8-1.5,3.8-3.4v-2.9
		C86.2,149.7,84.5,148.2,82.4,148.2z M84,154.5c0,0.8-0.7,1.4-1.6,1.4h-0.1c-0.9,0-1.6-0.6-1.6-1.4v-2.9c0-0.8,0.7-1.4,1.6-1.4h0.1
		c0.9,0,1.6,0.6,1.6,1.4V154.5z"/>
	<path d="M158.2,141l0.9-0.8v5.4c0,0.5,0.5,1,1.1,1s1.1-0.4,1.1-1v-7.8c0-0.4-0.3-0.8-0.7-0.9c-0.4-0.2-0.9-0.1-1.2,0.2l-2.8,2.5
		c-0.4,0.4-0.4,1,0,1.4C157.1,141.4,157.8,141.4,158.2,141z"/>
	<path d="M178.5,159.4c-0.4-0.2-0.9-0.1-1.2,0.2l-2.8,2.5c-0.4,0.4-0.4,1,0,1.4c0.4,0.4,1.1,0.4,1.5,0l0.9-0.8v2.9
		c0,0.5,0.5,1,1.1,1s1.1-0.4,1.1-1v-5.3C179.2,159.9,178.9,159.6,178.5,159.4z"/>
	<path d="M163,153.8v-2.9c0-1.9-1.7-3.4-3.8-3.4h-0.1c-2.1,0-3.8,1.5-3.8,3.4v2.9c0,1.9,1.7,3.4,3.8,3.4h0.1
		C161.3,157.2,163,155.7,163,153.8z M160.8,153.8c0,0.8-0.7,1.4-1.6,1.4h-0.1c-0.9,0-1.6-0.6-1.6-1.4v-2.9c0-0.8,0.7-1.4,1.6-1.4
		h0.1c0.9,0,1.6,0.6,1.6,1.4V153.8z"/>
	<path d="M168.9,147.4L168.9,147.4c-2.1,0-3.8,1.5-3.8,3.4v2.9c0,1.9,1.7,3.4,3.8,3.4h0.1c2.1,0,3.8-1.5,3.8-3.4v-2.9
		C172.7,149,171,147.4,168.9,147.4z M170.5,153.8c0,0.8-0.7,1.4-1.6,1.4h-0.1c-0.9,0-1.6-0.6-1.6-1.4v-2.9c0-0.8,0.7-1.4,1.6-1.4
		h0.1c0.9,0,1.6,0.6,1.6,1.4V153.8z"/>
	<path d="M178,147.4L178,147.4c-2.1,0-3.8,1.5-3.8,3.4v2.9c0,1.9,1.7,3.4,3.8,3.4h0.1c2.1,0,3.8-1.5,3.8-3.4v-2.9
		C181.8,149,180.1,147.4,178,147.4z M179.6,153.8c0,0.8-0.7,1.4-1.6,1.4H178c-0.9,0-1.6-0.6-1.6-1.4v-2.9c0-0.8,0.7-1.4,1.6-1.4h0.1
		c0.9,0,1.6,0.6,1.6,1.4V153.8z"/>
	<path d="M168.9,158.1L168.9,158.1c-2.1,0-3.8,1.5-3.8,3.4v2.9c0,1.9,1.7,3.4,3.8,3.4h0.1c2.1,0,3.8-1.5,3.8-3.4v-2.9
		C172.7,159.6,171,158.1,168.9,158.1z M170.5,164.4c0,0.8-0.7,1.4-1.6,1.4h-0.1c-0.9,0-1.6-0.6-1.6-1.4v-2.9c0-0.8,0.7-1.4,1.6-1.4
		h0.1c0.9,0,1.6,0.6,1.6,1.4V164.4z"/>
	<path d="M96.8,165.1v-2.9c0-1.9-1.7-3.4-3.8-3.4H93c-2.1,0-3.8,1.5-3.8,3.4v2.9c0,1.9,1.7,3.4,3.8,3.4H93
		C95.1,168.5,96.8,167,96.8,165.1z M94.6,165.1c0,0.8-0.7,1.4-1.6,1.4H93c-0.9,0-1.6-0.6-1.6-1.4v-2.9c0-0.8,0.7-1.4,1.6-1.4H93
		c0.9,0,1.6,0.6,1.6,1.4V165.1z"/>
	<path d="M102.8,148.1c-0.4-0.2-0.9-0.1-1.2,0.2l-2.8,2.5c-0.4,0.4-0.4,1,0,1.4c0.4,0.4,1.1,0.4,1.5,0l0.9-0.8v2.9
		c0,0.5,0.5,1,1.1,1s1.1-0.4,1.1-1V149C103.5,148.6,103.2,148.3,102.8,148.1z"/>
	<path d="M163,164.4v-2.9c0-1.9-1.7-3.4-3.8-3.4h-0.1c-2.1,0-3.8,1.5-3.8,3.4v2.9c0,1.9,1.7,3.4,3.8,3.4h0.1
		C161.3,167.9,163,166.3,163,164.4z M160.8,164.4c0,0.8-0.7,1.4-1.6,1.4h-0.1c-0.9,0-1.6-0.6-1.6-1.4v-2.9c0-0.8,0.7-1.4,1.6-1.4
		h0.1c0.9,0,1.6,0.6,1.6,1.4V164.4z"/>
	<path d="M87.6,140.4l0.9-0.8v5.4c0,0.5,0.5,1,1.1,1s1.1-0.4,1.1-1v-7.8c0-0.4-0.3-0.8-0.7-0.9c-0.4-0.2-0.9-0.1-1.2,0.2l-2.8,2.5
		c-0.4,0.4-0.4,1,0,1.4C86.5,140.8,87.2,140.8,87.6,140.4z"/>
	<path d="M96.5,140.4l0.9-0.8v5.4c0,0.5,0.5,1,1.1,1s1.1-0.4,1.1-1v-7.8c0-0.4-0.3-0.8-0.7-0.9c-0.4-0.2-0.9-0.1-1.2,0.2l-2.8,2.5
		c-0.4,0.4-0.4,1,0,1.4C95.3,140.8,96,140.8,96.5,140.4z"/>
	<path d="M168.2,136.8L168.2,136.8c-2.1,0-3.8,1.5-3.8,3.4v2.9c0,1.9,1.7,3.4,3.8,3.4h0.1c2.1,0,3.8-1.5,3.8-3.4v-2.9
		C171.9,138.3,170.2,136.8,168.2,136.8z M169.7,143.1c0,0.8-0.7,1.4-1.6,1.4h-0.1c-0.9,0-1.6-0.6-1.6-1.4v-2.9
		c0-0.8,0.7-1.4,1.6-1.4h0.1c0.9,0,1.6,0.6,1.6,1.4V143.1z"/>
	<path d="M150.8,151.7l0.9-0.8v5.4c0,0.5,0.5,1,1.1,1s1.1-0.4,1.1-1v-7.8c0-0.4-0.3-0.8-0.7-0.9c-0.4-0.2-0.9-0.1-1.2,0.2l-2.8,2.5
		c-0.4,0.4-0.4,1,0,1.4C149.7,152,150.4,152,150.8,151.7z"/>
</g>
</svg>
