<svg width="180" height="180" viewBox="0 0 180 180" fill="none" xmlns="http://www.w3.org/2000/svg">
<g clip-path="url(#clip0_384_42)">
<rect x="66" y="66" width="5" height="94" fill="#2E4050"/>
<path d="M38.1974 37.5941L54.8712 36.6667C64.245 36.1453 83.9881 35.0471 93.3619 34.5257C97.9244 34.2719 101.86 37.7143 102.119 42.3597C102.825 55.0517 104.477 84.7492 105.178 97.3582C105.432 101.921 101.989 105.857 97.3439 106.115C84.652 106.821 54.9544 108.473 42.3454 109.174C37.7829 109.428 33.847 105.986 33.5886 101.34C32.8826 88.6483 31.2307 58.9508 30.5294 46.3417C30.1097 41.7885 33.635 37.8479 38.1974 37.5941C36.6213 37.6818 39.9395 37.4972 38.1974 37.5941Z" fill="#1D428A"/>
<path d="M54.8001 94.5196L52.406 51.4782L66.3519 50.7024C71.6366 50.4085 75.0935 50.4322 76.7225 50.7735C79.2246 51.2822 81.368 52.5766 83.1525 54.6567C84.936 56.7172 85.923 59.4601 86.1135 62.8855C86.2605 65.5278 85.9045 67.7761 85.0456 69.6301C84.1867 71.4842 83.0423 72.9713 81.6125 74.0914C80.2011 75.1909 78.7413 75.9495 77.2331 76.3671C75.1812 76.8936 72.1881 77.2662 68.2539 77.485L62.5875 77.8002L63.4906 94.0362L54.8001 94.5196ZM61.5015 58.276L62.1809 70.4896L66.9371 70.2251C70.3624 70.0346 72.64 69.6821 73.7698 69.1677C74.8995 68.6533 75.7607 67.8985 76.3533 66.9035C76.9654 65.9074 77.2361 64.7732 77.1653 63.501C77.0782 61.9351 76.5464 60.6689 75.5699 59.7022C74.5933 58.7356 73.3933 58.1643 71.9699 57.9882C70.9216 57.8502 68.8317 57.8683 65.6999 58.0425L61.5015 58.276Z" fill="white"/>
<path d="M157 172.5C157 166.002 154.419 159.771 149.824 155.176C145.229 150.581 138.998 148 132.5 148C126.002 148 119.771 150.581 115.176 155.176C110.581 159.771 108 166.002 108 172.5L132.5 172.5H157Z" fill="#E7EB92"/>
<rect x="108" y="172" width="49" height="6" fill="#E7EB92"/>
<rect x="81" y="161" width="49" height="17" fill="#E7EB92"/>
<path d="M130 161.5C130 155.002 127.419 148.771 122.824 144.176C118.229 139.581 111.998 137 105.5 137C99.0022 137 92.7705 139.581 88.1759 144.176C83.5812 148.771 81 155.002 81 161.5L105.5 161.5H130Z" fill="#E7EB92"/>
<path d="M72 178.5C72 172.002 69.4188 165.771 64.8241 161.176C60.2295 156.581 53.9978 154 47.5 154C41.0022 154 34.7705 156.581 30.1759 161.176C25.5812 165.771 23 172.002 23 178.5L47.5 178.5H72Z" fill="#9CCC5C"/>
<path d="M94 168.5C94 163.859 92.1563 159.408 88.8744 156.126C85.5925 152.844 81.1413 151 76.5 151C71.8587 151 67.4075 152.844 64.1256 156.126C60.8437 159.408 59 163.859 59 168.5L76.5 168.5H94Z" fill="#9CCC5C"/>
<rect x="59" y="168" width="35" height="10" fill="#9CCC5C"/>
<rect x="23" y="176" width="134" height="4" fill="#2E4050"/>
</g>
<defs>
<clipPath id="clip0_384_42">
<rect width="180" height="180" fill="white"/>
</clipPath>
</defs>
</svg>
