<?xml version="1.0" encoding="utf-8"?>
<!-- Generator: Adobe Illustrator 25.4.1, SVG Export Plug-In . SVG Version: 6.00 Build 0)  -->
<svg version="1.1" id="Layer_1" xmlns="http://www.w3.org/2000/svg" xmlns:xlink="http://www.w3.org/1999/xlink" x="0px" y="0px"
	 viewBox="0 0 200 200" style="enable-background:new 0 0 200 200;" xml:space="preserve">
<style type="text/css">
	.st0{fill-opacity:0;stroke:#233647;stroke-width:4;}
	.st1{fill:#004FE3;stroke:#0028A8;stroke-miterlimit:10;}
	.st2{fill:#E7EB92;stroke:#000000;stroke-miterlimit:10;}
	.st3{fill:#FFFFFF;}
	.st4{font-family:'ArialMT';}
	.st5{font-size:69.2232px;}
	.st6{fill:none;stroke:#FFFFFF;stroke-width:1;stroke-miterlimit:10.0003;}
	.st7{enable-background:new    ;}
	.st8{fill:none;stroke:#FFFFFF;stroke-width:4.1136;stroke-miterlimit:16.4546;}
	.st9{fill:#9CCC5C;stroke:#000000;stroke-miterlimit:10;}
</style>
<g id="Layer_8">
	<g>
		<g>
			<g>
				<path id="c6Yt893sTx" class="st0" d="M167,198.9l-134.4,0.7"/>
			</g>
		</g>
	</g>
</g>
<g id="Layer_7">
	<g>
		<g>
			<g>
				<path id="b4TNok5G" class="st0" d="M76.7,180.3l-0.4-92.6"/>
			</g>
		</g>
	</g>
</g>
<g id="Layer_6">
	<g>
		<g>
			<g>
				<path id="a1xJXFjMs" class="st1" d="M43.1,1.3h20.1c11.3,0,35.1,0,46.4,0c5.5,0,10,4.4,10,10c0,15.3,0,51.1,0,66.3
					c0,5.5-4.4,10-10,10c-15.3,0-51.1,0-66.3,0c-5.5,0-10-4.4-10-10c0-15.3,0-51.1,0-66.3C33.1,5.8,37.6,1.3,43.1,1.3
					C45.2,1.3,41.2,1.3,43.1,1.3z"/>
			</g>
		</g>
	</g>
</g>
<g id="Layer_5">
	<g>
		<g>
			<g>
				<path id="d30jUYJp1t" class="st2" d="M74.2,200c6-11.8,9.9-19.1,11.3-22.1c5.8-11.3,20.4-14.4,30.3-6.6
					c1.7,1.3,5.8,4.6,12.5,9.9c0.8-0.6,1.3-1,1.6-1.2c10.1-7.8,24.6-5,31.1,5.9c1.7,2.8,0.6,1.1,3.8,6.5c1.9,3.2-0.4,7.5-4.2,7.5
					C149.1,199.8,120.3,199.9,74.2,200z"/>
			</g>
		</g>
	</g>
</g>
<g id="Layer_4">
	<g id="a2h2HP5s9e">
		<g>
			<text transform="matrix(0.9959 -9.078342e-02 9.078342e-02 0.9959 58.5272 68.7396)" class="st3 st4 st5">P</text>
			<text transform="matrix(0.9959 -9.078342e-02 9.078342e-02 0.9959 58.5272 68.7396)" class="st6 st4 st5">P</text>
		</g>
		<g>
			<g>
				<g class="st7">
					<text transform="matrix(0.9959 -9.078342e-02 9.078342e-02 0.9959 58.5272 68.7396)" class="st3 st4 st5">P</text>
					<text transform="matrix(0.9959 -9.078342e-02 9.078342e-02 0.9959 58.5272 68.7396)" class="st6 st4 st5">P</text>
				</g>
				<g class="st7">
					<text transform="matrix(0.9959 -9.078342e-02 9.078342e-02 0.9959 58.5272 68.7396)" class="st3 st4 st5">P</text>
					<text transform="matrix(0.9959 -9.078342e-02 9.078342e-02 0.9959 58.5272 68.7396)" class="st8 st4 st5">P</text>
				</g>
			</g>
		</g>
	</g>
</g>
<g id="Layer_3">
	<g>
		<g>
			<path id="bLIaiBavb" class="st9" d="M105,199.8c-4.7-9.1-7.6-14.8-8.7-17.1c-4.4-8.7-15.6-11.1-23.3-5c-1.3,1-4.4,3.5-9.6,7.6
				c-0.6-0.5-1-0.7-1.2-1c-7.7-6-19-3.8-24,4.6c-1.3,2.2-0.5,0.8-3,4.9c-1.6,2.5,0.4,5.8,3.2,5.8C47.4,199.6,69.6,199.8,105,199.8z"
				/>
		</g>
		<g>
			<g>
				<path id="bLIaiBavb_00000140726173567742751840000003355162344990869647_" class="st9" d="M105,199.8
					c-4.7-9.1-7.6-14.8-8.7-17.1c-4.4-8.7-15.6-11.1-23.3-5c-1.3,1-4.4,3.5-9.6,7.6c-0.6-0.5-1-0.7-1.2-1c-7.7-6-19-3.8-24,4.6
					c-1.3,2.2-0.5,0.8-3,4.9c-1.6,2.5,0.4,5.8,3.2,5.8C47.4,199.6,69.6,199.8,105,199.8z"/>
			</g>
		</g>
	</g>
</g>
</svg>
