<?xml version="1.0" encoding="utf-8"?>
<!-- Generator: Adobe Illustrator 25.4.1, SVG Export Plug-In . SVG Version: 6.00 Build 0)  -->
<svg version="1.1" xmlns="http://www.w3.org/2000/svg" xmlns:xlink="http://www.w3.org/1999/xlink" x="0px" y="0px"
	 viewBox="0 0 200 200" style="enable-background:new 0 0 200 200;" xml:space="preserve">
<style type="text/css">
	.st0{fill:#CFB53B;stroke:#000000;stroke-miterlimit:10;}
	.st1{stroke:#000000;stroke-miterlimit:10;}
	.st2{enable-background:new    ;}
	.st3{font-family:'MyriadPro-Regular';}
	.st4{font-size:76.3904px;}
	.st5{fill:none;stroke:#233647;stroke-width:5;}
</style>
<g id="Layer_3">
	<g>
		<g>
			<path id="d4y5uofOB6" class="st0" d="M153.4,16.6c2.3-1,5,0.1,6,2.4c7.9,18.3,29.9,69.1,37.8,87.5c1,2.3-0.1,5-2.4,6
				C164.4,125.6,77,163.4,46.6,176.6c-2.3,1-5-0.1-6-2.4c-7.9-18.3-29.9-69.1-37.8-87.5c-1-2.3,0.1-5,2.4-6
				C35.6,67.6,123,29.8,153.4,16.6z"/>
		</g>
	</g>
</g>
<g id="Layer_8">
	<g>
		<path id="b1eOXQuQNO_00000054988269833441554180000000475963164526188470_" class="st1" d="M6.5,93.8l154.6-68.9l9.5,22.7
			L16,116.5L6.5,93.8z"/>
	</g>
</g>
<g id="Layer_4">
	<g id="Layer_5">
		<g>
			<g>
				<g class="st2">
					<text transform="matrix(1.0553 -9.073976e-02 9.620081e-02 0.9954 86.8396 141.4829)" class="st3 st4">F</text>
				</g>
				<g class="st2">
					<text transform="matrix(1.0553 -9.073976e-02 9.620081e-02 0.9954 86.8396 141.4829)" class="st5 st3 st4">F</text>
				</g>
			</g>
		</g>
	</g>
</g>
</svg>
