<svg width="1500" height="200" viewBox="0 0 1500 200" fill="none" xmlns="http://www.w3.org/2000/svg">
<g clip-path="url(#clip0_371_5)">
<path fill-rule="evenodd" clip-rule="evenodd" d="M1500 179.602C1476 178.72 1457.71 177.541 1433.62 174.042C1421.27 173.258 1406.31 170.695 1391.29 164.504C1361.39 156.013 1338.31 149.74 1306.9 148.311C1281.15 147.14 1265.31 149.594 1247.26 152.392C1243.3 153.005 1239.24 153.635 1234.95 154.246C1203.04 159.321 1187.17 161.482 1150.45 163.814C1113.74 166.146 1084.06 166.709 1045.19 160.397C1006.32 154.084 996.9 151.492 975.309 145.018L920.402 128.697C889.253 119.478 845.272 107.394 809.335 104.889C775.583 102.536 730.912 105.37 698.358 107.436C696.253 107.569 694.198 107.7 692.199 107.825C659.312 109.892 590.117 118.993 549.231 128.818C535.634 132.085 522.264 135.724 508.403 139.497C480.584 147.068 450.787 155.178 413.206 161.903C356.898 171.979 277.868 175.425 239.628 175.934C201.387 176.444 136.649 176.974 90.6332 171.433C59.0157 167.625 26.6515 160.972 4.41552e-05 153.918L3.57628e-05 249.917L1500 249.917L1500 179.602Z" fill="white"/>
</g>
<defs>
<clipPath id="clip0_371_5">
<rect width="1500" height="200" fill="white"/>
</clipPath>
</defs>
</svg>
