<svg width="1343" height="229" viewBox="0 0 1343 229" fill="none" xmlns="http://www.w3.org/2000/svg">
<path fill-rule="evenodd" clip-rule="evenodd" d="M1343 169.447C1340.4 170.11 1337.78 170.845 1335.17 171.659C1306.45 178.052 1284.27 182.803 1253.79 184.629C1228.79 186.127 1213.28 184.976 1195.61 183.663C1191.74 183.375 1187.76 183.08 1183.56 182.803C1152.32 180.399 1136.79 179.44 1100.98 178.963C1065.18 178.485 1036.29 178.963 998.759 184.189C961.229 189.414 952.173 191.374 931.45 196.214L878.745 208.429C848.843 215.333 806.583 224.471 771.741 227.129C739.016 229.626 695.453 229.047 663.707 228.625C661.653 228.598 659.649 228.571 657.701 228.546C625.629 228.133 557.952 224.162 517.772 218.912C504.411 217.167 491.254 215.172 477.614 213.104C450.239 208.954 420.918 204.508 384.084 201.188C328.898 196.214 251.894 196.214 214.683 196.97C177.473 197.726 114.492 199.222 69.9757 204.148C46.0338 206.797 21.7209 210.598 0 214.696V129.251H1343V169.447Z" fill="#1D428A"/>
<path fill-rule="evenodd" clip-rule="evenodd" d="M1.01075e-05 36.0522C3.02357 36.0783 6.02638 36.0713 9.04615 36.0643C12.3626 36.0566 15.6994 36.0489 19.1065 36.0849L22.5707 36.0792C57.8938 36.0213 78.7376 35.9872 109.075 33.6317C121.129 33.3511 135.8 31.9582 150.695 28.199C180.176 23.2168 202.927 19.5547 233.551 19.2099C258.671 18.9271 273.972 20.8254 291.411 22.989C295.232 23.463 299.155 23.9498 303.308 24.4292C334.125 28.3383 349.479 30.0455 385.101 32.2544C420.723 34.4633 449.585 35.3858 487.693 31.9935C525.802 28.6011 535.092 27.0859 556.396 23.2646L610.567 13.6406C641.297 8.20637 684.645 1.14354 719.73 0.180773C752.684 -0.72351 796.028 1.96208 827.615 3.91917C829.658 4.04574 831.651 4.16928 833.59 4.28859C865.501 6.2527 932.427 13.4865 971.772 20.6635C984.857 23.0503 997.703 25.6754 1011.02 28.3968C1037.75 33.8587 1066.38 39.7089 1102.65 44.8009C1156.99 52.43 1233.74 56.1572 1270.93 57.2052C1290.1 57.7453 1316.12 58.4207 1343 58.5713L1343 166.507L362.187 166.507L2.65282e-05 148.919L1.01075e-05 36.0522Z" fill="#1D428A"/>
</svg>
