<svg width="2669" height="311" viewBox="0 0 2669 311" fill="none" xmlns="http://www.w3.org/2000/svg">
<path fill-rule="evenodd" clip-rule="evenodd" d="M0 169.447C2.60254 170.11 5.21729 170.845 7.82898 171.659C36.5457 178.052 58.7319 182.803 89.2104 184.629C114.211 186.127 129.716 184.976 147.389 183.663C151.261 183.375 155.237 183.08 159.44 182.803C190.682 180.399 206.214 179.44 242.016 178.963C277.819 178.485 306.711 178.963 344.241 184.189C381.771 189.414 390.827 191.374 411.55 196.214L464.255 208.429C494.157 215.333 536.417 224.471 571.259 227.129C603.984 229.626 647.547 229.047 679.293 228.625C681.347 228.598 683.351 228.571 685.299 228.546C717.37 228.133 785.048 224.162 825.227 218.912C838.589 217.167 851.746 215.172 865.386 213.104C892.761 208.954 922.082 204.508 958.916 201.188C1014.1 196.214 1091.11 196.214 1128.32 196.97C1165.53 197.726 1228.51 199.222 1273.02 204.148C1296.97 206.797 1321.28 210.598 1343 214.696V129.251H0V169.447Z" fill="#233747"/>
<path fill-rule="evenodd" clip-rule="evenodd" d="M1343 36.0522C1339.98 36.0783 1336.97 36.0713 1333.95 36.0643C1330.64 36.0566 1327.3 36.0489 1323.89 36.0849L1320.43 36.0792C1285.11 36.0213 1264.26 35.9872 1233.93 33.6317C1221.87 33.3511 1207.2 31.9582 1192.3 28.199C1162.82 23.2168 1140.07 19.5547 1109.45 19.2099C1084.33 18.9271 1069.03 20.8254 1051.59 22.989C1047.77 23.463 1043.84 23.9498 1039.69 24.4292C1008.87 28.3383 993.521 30.0455 957.899 32.2544C922.277 34.4633 893.415 35.3858 855.307 31.9935C817.198 28.6011 807.908 27.0859 786.604 23.2646L732.433 13.6406C701.703 8.20637 658.355 1.14354 623.27 0.180773C590.316 -0.72351 546.972 1.96208 515.385 3.91917C513.342 4.04574 511.349 4.16928 509.41 4.28859C477.499 6.2527 410.573 13.4865 371.228 20.6635C358.143 23.0503 345.297 25.6754 331.978 28.3968C305.249 33.8587 276.619 39.7089 240.35 44.8009C186.01 52.43 109.256 56.1572 72.0652 57.2052C52.8973 57.7453 26.8799 58.4207 4.47904e-05 58.5713L2.90871e-05 166.507L980.813 166.507L1343 148.919L1343 36.0522Z" fill="#233747"/>
<rect y="167" width="1343" height="144" fill="#233747"/>
<path fill-rule="evenodd" clip-rule="evenodd" d="M2669 169.447C2666.4 170.11 2663.78 170.845 2661.17 171.659C2632.45 178.052 2610.27 182.803 2579.79 184.629C2554.79 186.127 2539.28 184.976 2521.61 183.663C2517.74 183.375 2513.76 183.08 2509.56 182.803C2478.32 180.399 2462.79 179.44 2426.98 178.963C2391.18 178.485 2362.29 178.963 2324.76 184.189C2287.23 189.414 2278.17 191.374 2257.45 196.214L2204.74 208.429C2174.84 215.333 2132.58 224.471 2097.74 227.129C2065.02 229.626 2021.45 229.047 1989.71 228.625C1987.65 228.598 1985.65 228.571 1983.7 228.546C1951.63 228.133 1883.95 224.162 1843.77 218.912C1830.41 217.167 1817.25 215.172 1803.61 213.104C1776.24 208.954 1746.92 204.508 1710.08 201.188C1654.9 196.214 1577.89 196.214 1540.68 196.97C1503.47 197.726 1440.49 199.222 1395.98 204.148C1372.03 206.797 1347.72 210.598 1326 214.696V129.251H2669V169.447Z" fill="#233747"/>
<path fill-rule="evenodd" clip-rule="evenodd" d="M1326 36.0522C1329.02 36.0783 1332.03 36.0713 1335.05 36.0643C1338.36 36.0566 1341.7 36.0489 1345.11 36.0849L1348.57 36.0792C1383.89 36.0213 1404.74 35.9872 1435.07 33.6317C1447.13 33.3511 1461.8 31.9582 1476.7 28.199C1506.18 23.2168 1528.93 19.5547 1559.55 19.2099C1584.67 18.9271 1599.97 20.8254 1617.41 22.989C1621.23 23.463 1625.16 23.9498 1629.31 24.4292C1660.13 28.3383 1675.48 30.0455 1711.1 32.2544C1746.72 34.4633 1775.58 35.3858 1813.69 31.9935C1851.8 28.6011 1861.09 27.0859 1882.4 23.2646L1936.57 13.6406C1967.3 8.20637 2010.65 1.14354 2045.73 0.180773C2078.68 -0.72351 2122.03 1.96208 2153.61 3.91917C2155.66 4.04574 2157.65 4.16928 2159.59 4.28859C2191.5 6.2527 2258.43 13.4865 2297.77 20.6635C2310.86 23.0503 2323.7 25.6754 2337.02 28.3968C2363.75 33.8587 2392.38 39.7089 2428.65 44.8009C2482.99 52.43 2559.74 56.1572 2596.93 57.2052C2616.1 57.7453 2642.12 58.4207 2669 58.5713L2669 166.507L1688.19 166.507L1326 148.919L1326 36.0522Z" fill="#233747"/>
<rect width="1343" height="144" transform="matrix(-1 0 0 1 2669 167)" fill="#233747"/>
</svg>
