<svg xmlns="http://www.w3.org/2000/svg" viewBox="0 0 520.09 242.9"><defs><style>.cls-1{fill:#3d9fb4;}</style></defs><g id="Layer_11" data-name="Layer 11"><path id="h" class="cls-1" d="M5.3,115.07a41.83,41.83,0,0,1,6.29-12.58A43.6,43.6,0,0,1,21,93.11a40.21,40.21,0,0,1,11.44-5.85,41.5,41.5,0,0,1,12.8-2q10.6,0,17.66,3.75A30.91,30.91,0,0,1,74.16,99a40.68,40.68,0,0,1,6,13.9,70.63,70.63,0,0,1,1.76,15.67v61.36H77V129a72.67,72.67,0,0,0-1.33-13.24,36.09,36.09,0,0,0-5-12.8,30.66,30.66,0,0,0-9.83-9.6q-6.18-3.85-15.67-3.86A36.9,36.9,0,0,0,16.59,102.7,48.75,48.75,0,0,0,8,118.26a63.09,63.09,0,0,0-3.2,20.85v50.77H0V32.24H4.86v82.83H5.3" transform="translate(0 0.04)"/></g><g id="Layer_10" data-name="Layer 10"><path id="e1" class="cls-1" d="M193.14,133.79a52.83,52.83,0,0,0-3.42-18.1,43.28,43.28,0,0,0-8.72-14,37.85,37.85,0,0,0-13.24-9,44.73,44.73,0,0,0-17.22-3.2q-11.47,0-19.64,4.74a44,44,0,0,0-13.36,11.7,49.57,49.57,0,0,0-7.61,14.57,45,45,0,0,0-2.43,13.35ZM107.28,138A62.62,62.62,0,0,0,110,156.3a49.35,49.35,0,0,0,8.39,16.22,42.18,42.18,0,0,0,14.23,11.59q8.61,4.41,20.31,4.41a45.76,45.76,0,0,0,21.19-4.74A47,47,0,0,0,190.27,170L193.8,173a51.35,51.35,0,0,1-17.55,14.79Q166.22,193,153,193a50.46,50.46,0,0,1-20.53-4.08,48,48,0,0,1-16-11.37,50.43,50.43,0,0,1-10.37-17.44A64.75,64.75,0,0,1,102.43,138a58.08,58.08,0,0,1,3.76-21.19A52.15,52.15,0,0,1,116.47,100a45.4,45.4,0,0,1,15.38-10.92,47,47,0,0,1,19-3.87q11.94,0,20.8,4.2a43.61,43.61,0,0,1,14.71,11A46,46,0,0,1,195.1,116a56.8,56.8,0,0,1,2.9,17.82V138H107.28" transform="translate(0 0.04)"/></g><g id="Layer_9" data-name="Layer 9"><path id="j1" class="cls-1" d="M197.64,238.21a24.21,24.21,0,0,0,22.75-24.14V85.27H225v128.8a28.86,28.86,0,0,1-27.1,28.79h-.26v-4.67" transform="translate(0 0.04)"/></g><g id="Layer_8" data-name="Layer 8"><path id="a" class="cls-1" d="M317.51,134.45H301.84a165.15,165.15,0,0,0-17.65,1,64.16,64.16,0,0,0-17,4.09,32.24,32.24,0,0,0-12.69,8.83q-5,5.73-5,15.45a23,23,0,0,0,2.76,11.8,22.69,22.69,0,0,0,7.06,7.62,30.57,30.57,0,0,0,9.49,4.19,39.71,39.71,0,0,0,9.82,1.32q11.26,0,18.76-4.19a35.42,35.42,0,0,0,12-10.7,40.64,40.64,0,0,0,6.29-14.35,68.89,68.89,0,0,0,1.76-15.34Zm4.86,32.44q0,5.75.55,12.25c.37,4.35.77,7.91,1.22,10.71H319.5a41,41,0,0,1-.66-5.41c-.15-2.13-.33-4.33-.55-6.62s-.37-4.53-.44-6.73-.11-4-.11-5.52h-.67q-4.41,13.91-15.23,20.64a43.19,43.19,0,0,1-35.42,5,35.21,35.21,0,0,1-10.92-5.29,26.71,26.71,0,0,1-7.84-9,27.06,27.06,0,0,1-3-13q0-10.82,5.63-17.44a37.83,37.83,0,0,1,14-10.26,62.77,62.77,0,0,1,18-4.75,155.86,155.86,0,0,1,17.55-1.1h17.65v-8.17q0-17-9-24.83t-23.62-7.83A42.81,42.81,0,0,0,268,92.74a50.29,50.29,0,0,0-14,8.83l-2.65-3.76a49.92,49.92,0,0,1,16-9.38,52,52,0,0,1,17.55-3.2q17.43,0,27.48,8.94t10,28.14v44.58" transform="translate(0 0.04)"/></g><g id="Layer_7" data-name="Layer 7"><path id="r" class="cls-1" d="M368.83,92.23a35.26,35.26,0,0,1,21-7,38.14,38.14,0,0,1,4,.22v4.2a21.21,21.21,0,0,0-2.87-.22q-9.72,0-16.55,4.3A35.61,35.61,0,0,0,363.15,105a51.71,51.71,0,0,0-6.51,15.45,70.12,70.12,0,0,0-2.1,16.88v52.53h-4.85V115.07c0-1.62-1-28.33-1.11-29.8h4.86c.14,1.47.88,27.89.88,29.8h.44q4.42-15.9,14.13-22.84" transform="translate(0 0.04)"/></g><g id="Layer_6" data-name="Layer 6"><path id="e2" class="cls-1" d="M479.41,133.79a52.83,52.83,0,0,0-3.42-18.1,43.17,43.17,0,0,0-8.72-14,37.85,37.85,0,0,0-13.24-9,44.73,44.73,0,0,0-17.22-3.2q-11.47,0-19.64,4.74a43.92,43.92,0,0,0-13.35,11.7,49.37,49.37,0,0,0-7.62,14.57,44.63,44.63,0,0,0-2.42,13.35ZM393.55,138a62.2,62.2,0,0,0,2.76,18.32,49.35,49.35,0,0,0,8.39,16.22,42.21,42.21,0,0,0,14.24,11.59q8.6,4.41,20.3,4.41a45.76,45.76,0,0,0,21.19-4.74A47,47,0,0,0,476.54,170l3.53,3.08a51.35,51.35,0,0,1-17.55,14.79q-10,5.08-23.28,5.08a50.41,50.41,0,0,1-20.52-4.08,48,48,0,0,1-16-11.37A50.43,50.43,0,0,1,392.35,160,64.73,64.73,0,0,1,388.7,138a58.08,58.08,0,0,1,3.76-21.19A52.15,52.15,0,0,1,402.74,100a45.67,45.67,0,0,1,15.38-10.92,47,47,0,0,1,19-3.87q12,0,20.8,4.2a43.61,43.61,0,0,1,14.71,11A45.61,45.61,0,0,1,481.37,116a56.46,56.46,0,0,1,2.87,17.77V138H393.55" transform="translate(0 0.04)"/></g><g id="Layer_5" data-name="Layer 5"><path id="j2" class="cls-1" d="M227.08,59.47a4.3,4.3,0,1,1-4.3-4.3,4.31,4.31,0,0,1,4.3,4.3v0" transform="translate(0 0.04)"/></g><g id="Layer_4" data-name="Layer 4"><path id="b3" class="cls-1" d="M495,63.77a10.75,10.75,0,1,0,10.75,10.75h0A10.75,10.75,0,0,0,495,63.77Zm0,2.87a7.88,7.88,0,1,1-7.88,7.88A7.88,7.88,0,0,1,495,66.64h0" transform="translate(0 0.04)"/></g><g id="Layer_3" data-name="Layer 3"><path id="b2" class="cls-1" d="M512.93,0a7.17,7.17,0,1,0,7.16,7.18v0A7.17,7.17,0,0,0,512.93,0Zm0,2.86a4.3,4.3,0,1,1-4.3,4.3h0a4.32,4.32,0,0,1,4.3-4.3" transform="translate(0 0.04)"/></g><g id="Layer_2" data-name="Layer 2"><path id="b1" class="cls-1" d="M484.18,14.33A17.92,17.92,0,1,0,502.1,32.25h0a17.91,17.91,0,0,0-17.91-17.91Zm0,2.86a15.05,15.05,0,1,1-15,15.1v0a15.07,15.07,0,0,1,15-15" transform="translate(0 0.04)"/></g></svg>